<?xml version="1.0" standalone="no"?>
<!DOCTYPE svg PUBLIC "-//W3C//DTD SVG 20010904//EN"
 "http://www.w3.org/TR/2001/REC-SVG-20010904/DTD/svg10.dtd">
<svg version="1.0" xmlns="http://www.w3.org/2000/svg"
 width="527.000000pt" height="527.000000pt" viewBox="0 0 527.000000 527.000000"
 preserveAspectRatio="xMidYMid meet">
<metadata>
Created by potrace 1.11, written by Peter Selinger 2001-2013
</metadata>
<g transform="translate(0.000000,527.000000) scale(0.100000,-0.100000)"
fill="#000000" stroke="none">
<path d="M2037 4774 c-1 -1 -80 -5 -176 -9 -95 -3 -181 -8 -191 -10 -10 -2
-56 -6 -103 -10 -47 -3 -95 -8 -107 -10 -12 -2 -48 -7 -81 -10 -33 -4 -70 -8
-82 -11 -12 -2 -39 -6 -62 -10 -212 -31 -469 -106 -624 -181 -200 -98 -302
-301 -305 -608 -1 -197 28 -275 118 -316 109 -49 227 2 294 129 32 60 64 172
77 267 10 79 12 82 88 113 72 30 216 78 259 86 13 2 43 9 68 15 25 5 68 13 95
17 28 3 52 7 55 9 3 2 34 6 70 10 36 3 76 8 90 10 84 12 246 22 415 25 l120 2
5 -103 c7 -143 4 -1726 -4 -1929 -17 -453 -20 -518 -41 -817 -6 -80 -16 -198
-21 -233 -12 -87 -14 -108 -19 -155 -3 -27 -11 -74 -16 -103 l-10 -52 -120 0
c-145 0 -195 -11 -248 -56 -105 -91 -112 -255 -13 -325 55 -39 152 -69 244
-77 110 -9 809 -8 1068 2 215 8 257 10 380 20 129 11 163 14 230 25 36 6 83
13 105 15 71 9 118 17 220 38 55 11 111 22 125 24 14 3 66 15 115 28 457 120
750 269 827 419 74 146 -61 317 -229 292 -62 -9 -139 -39 -293 -113 -157 -75
-211 -99 -280 -124 -64 -23 -60 -21 -170 -49 -94 -23 -96 -23 -160 -35 -25 -4
-47 -8 -50 -9 -3 -1 -32 -5 -65 -9 -32 -4 -68 -10 -80 -12 -11 -2 -49 -7 -85
-10 -36 -4 -78 -8 -95 -9 -32 -4 -148 -13 -255 -20 -36 -3 -181 -8 -322 -11
-264 -7 -265 -7 -259 28 0 4 3 58 6 120 3 62 8 151 10 198 11 201 22 638 26
972 l3 197 84 -5 c205 -13 919 -6 1057 11 157 19 232 54 278 128 54 86 32 223
-45 280 -65 48 -126 56 -308 44 -281 -20 -592 -25 -875 -14 -66 3 -136 6 -156
6 l-37 1 -1 113 c-6 408 -20 1069 -25 1217 -2 51 8 85 23 76 3 -2 56 -7 116
-11 61 -4 130 -8 155 -10 43 -4 124 -11 235 -20 28 -2 86 -7 130 -10 44 -4 82
-8 85 -10 3 -1 43 -6 90 -9 47 -4 94 -9 105 -11 11 -3 44 -7 74 -10 30 -3 82
-9 115 -15 34 -5 79 -12 101 -15 116 -16 260 -58 436 -125 226 -88 264 -88
350 1 59 60 78 126 59 199 -17 66 -110 153 -223 208 -168 83 -632 230 -812
258 -27 4 -57 9 -65 10 -8 2 -33 6 -55 9 -22 3 -51 7 -65 9 -14 3 -56 7 -95
11 -38 4 -83 8 -100 10 -27 3 -144 12 -275 20 -158 11 -895 26 -903 19z"/>
</g>
</svg>
