<?xml version="1.0" standalone="no"?>
<!DOCTYPE svg PUBLIC "-//W3C//DTD SVG 20010904//EN"
 "http://www.w3.org/TR/2001/REC-SVG-20010904/DTD/svg10.dtd">
<svg version="1.0" xmlns="http://www.w3.org/2000/svg"
 width="676.000000pt" height="676.000000pt" viewBox="0 0 676.000000 676.000000"
 preserveAspectRatio="xMidYMid meet">
<metadata>
Created by potrace 1.11, written by Peter Selinger 2001-2013
</metadata>
<g transform="translate(0.000000,676.000000) scale(0.100000,-0.100000)"
fill="#000000" stroke="none">
<path d="M0 6150 c0 -468 3 -610 12 -610 9 0 9 -3 0 -12 -9 -9 -12 -104 -12
-368 1 -327 2 -353 16 -326 29 52 64 160 89 271 33 150 36 180 20 226 -8 22
-10 39 -4 39 9 0 7 25 -6 73 -4 16 -1 14 11 -8 25 -44 66 -369 59 -465 -7 -96
-29 -178 -66 -252 -43 -85 -99 -169 -108 -164 -5 3 -9 -28 -10 -70 l-2 -75 31
23 c36 26 87 29 287 15 64 -5 113 -4 117 1 3 5 15 8 28 7 13 -1 25 1 28 6 3 4
43 0 90 -8 111 -20 155 -9 219 54 27 27 35 39 21 31 -24 -15 -31 -13 -130 36
-58 28 -104 56 -102 61 3 13 92 7 163 -11 101 -25 144 -19 234 32 146 85 307
271 397 459 21 44 35 67 31 50 -34 -166 -196 -413 -321 -490 -76 -47 -193
-105 -211 -105 -31 0 -1 -11 69 -26 54 -11 75 -12 80 -4 4 7 66 29 139 49 170
49 216 79 277 182 24 42 42 83 39 90 -2 8 -9 48 -14 89 -6 41 -19 145 -31 230
-11 85 -20 156 -20 158 0 1 -4 2 -8 2 -5 0 -14 -19 -21 -42 -20 -71 -38 -101
-83 -145 -24 -22 -51 -49 -60 -60 -83 -89 -118 -122 -146 -139 l-34 -19 54 -5
53 -5 -55 -13 c-96 -23 -267 -33 -350 -22 -166 22 -330 66 -314 83 4 4 0 7 -9
7 -19 0 -21 8 -8 28 7 11 20 9 72 -11 35 -14 75 -27 89 -30 14 -2 34 -8 44
-12 15 -7 17 -5 11 6 -7 11 -5 11 10 -1 10 -8 25 -15 34 -15 9 -1 43 -7 76
-14 58 -13 188 -11 203 3 3 4 0 12 -8 17 -11 8 -7 9 15 4 25 -5 39 2 87 42 32
27 74 73 93 104 l34 55 -16 97 c-9 53 -19 97 -24 97 -4 0 -10 -19 -14 -42 -4
-24 -14 -54 -22 -67 -8 -13 -11 -21 -6 -18 5 4 10 0 10 -8 0 -8 -3 -13 -6 -13
-17 3 -44 -18 -52 -40 -5 -14 -12 -22 -15 -20 -3 3 12 56 33 117 l38 111 37 0
38 0 1 -72 c1 -40 4 -84 8 -98 7 -23 9 -20 29 30 27 69 28 52 2 -31 -10 -35
-18 -65 -16 -67 2 -2 19 18 36 44 31 45 32 49 27 120 -4 54 -2 74 7 74 10 0
15 -19 19 -67 1 -21 16 -3 25 30 7 28 13 33 48 37 21 3 53 4 69 2 29 -3 31 -7
50 -85 16 -65 20 -116 20 -243 l0 -162 32 37 c53 59 77 118 75 181 -8 209 -7
270 6 270 6 0 12 -12 12 -27 0 -16 3 -38 6 -51 l6 -22 37 21 c20 12 50 34 66
49 33 30 65 45 65 30 0 -5 -21 -26 -46 -47 -51 -42 -81 -93 -89 -150 -3 -21
-8 -43 -10 -50 -2 -7 1 -15 7 -19 7 -4 8 -3 4 4 -4 7 -5 12 -2 12 15 0 28 -50
33 -122 5 -66 2 -94 -17 -157 -49 -164 -62 -202 -85 -235 -27 -40 -25 -41 71
-45 l61 -2 41 46 c80 91 87 118 85 305 l-1 165 13 -85 c8 -47 14 -116 15 -155
0 -83 11 -108 28 -70 7 15 10 31 7 36 -4 5 -3 9 2 9 4 0 9 34 10 74 1 61 7 84
29 123 27 48 246 273 265 273 23 0 99 -93 129 -156 25 -50 32 -80 33 -126 0
-32 -5 -64 -11 -70 -15 -15 -16 -32 -2 -23 6 3 10 -1 10 -10 0 -9 -4 -14 -9
-11 -9 6 -26 -22 -23 -36 1 -5 -4 -8 -10 -8 -13 0 -51 -49 -49 -63 1 -4 -11
-19 -25 -32 -15 -14 -22 -25 -16 -25 5 0 40 29 76 64 l66 63 1 -196 c2 -333
-1 -815 -5 -819 -2 -2 -29 4 -60 13 -43 13 -60 14 -71 5 -18 -15 -10 -67 15
-87 8 -7 12 -13 7 -13 -4 0 0 -14 8 -31 15 -29 18 -30 61 -23 l44 6 0 -84 c0
-54 -4 -89 -13 -97 -10 -10 -9 -14 3 -21 13 -7 15 -40 12 -223 l-3 -214 -48
-27 c-146 -79 -234 -214 -256 -390 -8 -68 1 -68 42 2 15 26 40 62 56 81 22 26
28 40 23 62 -4 23 2 35 42 76 48 48 126 113 136 113 3 0 6 -33 6 -73 0 -70 -1
-74 -35 -107 -43 -42 -75 -139 -82 -250 -5 -86 9 -178 22 -145 29 76 60 136
76 151 27 24 24 12 -11 -45 -25 -40 -32 -65 -38 -133 -12 -138 0 -163 37 -78
12 28 24 50 26 50 3 0 5 -61 5 -136 0 -91 -3 -133 -10 -129 -7 4 -9 -2 -4 -19
16 -65 -48 1 -85 88 -21 47 -61 107 -61 90 0 -16 37 -127 58 -176 12 -25 38
-65 59 -89 l38 -42 0 -131 c0 -120 -2 -135 -26 -186 l-26 -55 -12 40 c-7 22
-28 57 -47 78 l-34 37 -67 -30 c-36 -16 -74 -30 -84 -30 -11 0 -19 -5 -19 -10
0 -6 -16 -18 -35 -27 l-35 -17 25 -16 c46 -30 155 -160 155 -185 0 -5 -23 -15
-67 -29 -15 -5 -23 -3 -23 5 0 6 -9 43 -20 80 -18 60 -24 70 -48 75 -15 3 -42
12 -61 20 -44 20 -49 12 -19 -28 14 -18 43 -63 66 -100 l41 -68 -103 0 -102 0
-13 48 c-22 85 -70 167 -146 249 -96 104 -167 139 -325 158 -63 8 -212 -23
-364 -75 -106 -35 -136 -38 -136 -11 0 46 196 131 354 153 93 13 102 13 180
-7 45 -12 87 -25 94 -29 7 -4 44 -16 83 -27 67 -19 132 -54 188 -103 16 -14
23 -16 19 -6 -3 8 -13 40 -23 70 -9 30 -31 70 -48 88 -38 40 -108 75 -139 69
-19 -3 -16 -7 25 -26 26 -12 47 -26 47 -31 0 -6 7 -10 15 -10 8 0 15 -7 15
-15 0 -13 -11 -19 -31 -17 -4 1 -22 3 -40 6 -19 2 -64 13 -101 25 -183 58
-447 87 -559 61 -79 -18 -110 -41 -187 -138 -88 -112 -120 -178 -127 -267 -1
-16 -6 -41 -10 -55 -4 -14 -8 -34 -9 -45 0 -11 -5 -26 -10 -33 -4 -7 -5 -16
-2 -19 3 -3 -1 -21 -9 -39 -9 -22 -10 -36 -4 -40 6 -3 8 -12 5 -19 -2 -7 0
-17 6 -23 7 -7 6 -17 -2 -32 -7 -12 -8 -20 -3 -17 5 3 10 -11 10 -31 1 -20 6
-38 12 -40 5 -2 7 -10 4 -18 -3 -8 0 -14 6 -14 6 0 8 -7 4 -17 -5 -12 -3 -14
7 -8 9 5 11 4 6 -4 -4 -6 -2 -20 4 -29 7 -9 -7 5 -31 31 -31 33 -59 83 -94
164 l-50 117 0 120 c0 112 2 125 27 173 39 76 233 289 280 308 21 8 45 15 54
15 8 0 34 11 57 24 23 13 57 27 75 31 17 4 32 10 32 14 0 4 -40 13 -90 20
-160 23 -161 23 -26 66 113 36 123 37 220 32 68 -3 119 -12 156 -26 67 -25 67
-25 48 -3 -58 66 -63 164 -17 345 17 67 37 132 45 144 8 12 14 46 14 75 l0 53
-19 -24 -19 -25 5 27 c3 15 9 27 13 27 4 0 19 23 35 51 31 57 83 121 94 115 4
-3 26 12 49 32 35 31 40 41 36 64 l-6 27 -32 -38 c-17 -21 -40 -51 -51 -66
-10 -15 -40 -37 -65 -50 -25 -12 -67 -49 -95 -81 -113 -131 -135 -148 -220
-173 -44 -12 -105 -33 -137 -47 -44 -19 -82 -26 -170 -31 l-113 -7 45 -13 c58
-17 189 -20 217 -5 28 16 31 15 36 -6 4 -16 5 -16 6 1 1 17 2 17 18 2 14 -14
14 -18 2 -26 -10 -6 -7 -9 14 -10 15 -1 32 -3 37 -4 6 -1 13 -3 17 -4 3 0 -13
-19 -38 -41 -86 -79 -354 -188 -484 -197 -96 -6 -108 -12 -61 -28 21 -8 42
-19 46 -25 4 -6 1 -36 -5 -65 -7 -30 -10 -57 -6 -61 3 -4 -1 -5 -9 -2 -11 4
-16 -3 -17 -28 -2 -25 1 -34 12 -34 9 0 15 -9 15 -22 0 -19 -2 -20 -11 -8 -8
12 -9 9 -5 -12 4 -16 3 -28 -2 -28 -4 0 -8 -17 -9 -37 -2 -47 -5 -60 -26 -100
-9 -18 -17 -42 -17 -53 0 -17 -4 -20 -23 -15 -22 7 -22 7 -2 -8 20 -16 20 -16
-3 -10 -28 7 -28 21 1 34 20 9 20 9 -6 4 -29 -6 -37 9 -11 23 15 8 15 10 -1
16 -9 3 -20 4 -25 1 -4 -3 -6 3 -3 14 3 10 0 22 -6 25 -6 4 -9 1 -5 -7 3 -8 0
-18 -6 -22 -6 -3 -10 -3 -9 2 3 18 -1 36 -8 30 -3 -4 -12 -2 -20 5 -11 9 -24
1 -64 -42 -27 -30 -48 -59 -45 -66 3 -8 1 -16 -5 -20 -6 -3 -8 -12 -5 -19 2
-7 2 -16 -2 -19 -3 -4 -7 -17 -9 -29 -8 -61 -15 -87 -23 -87 -12 0 -13 -6 4
83 18 93 33 123 91 181 39 40 77 63 60 37 -3 -5 -1 -12 5 -16 5 -3 10 -2 10 4
0 5 3 17 6 25 5 12 2 15 -10 10 -10 -4 -19 2 -25 18 -19 48 -43 134 -43 156 0
13 -7 22 -16 22 -25 0 -8 76 26 119 22 27 39 37 68 41 35 5 37 6 19 17 -11 6
-48 18 -82 27 -70 17 -126 43 -162 75 -13 12 -34 21 -47 21 -20 0 -23 -6 -29
-57 -7 -71 -25 -142 -36 -149 -5 -3 -9 -54 -9 -114 0 -94 2 -109 15 -104 11 5
13 2 9 -10 -3 -9 -10 -16 -15 -16 -5 0 -9 -404 -9 -960 l0 -961 942 1 c1011 2
998 1 998 51 0 13 10 24 30 30 33 12 38 30 14 53 -14 15 -14 17 0 32 20 19 21
31 2 15 -10 -8 -16 -9 -21 -1 -10 16 -35 12 -29 -5 4 -9 0 -15 -10 -15 -10 0
-13 -6 -9 -17 5 -15 3 -14 -10 2 -8 11 -13 24 -10 29 4 5 1 6 -4 3 -23 -15
-34 19 -22 67 11 43 13 46 29 31 9 -8 21 -15 26 -15 5 0 3 4 -4 8 -16 11 1 62
20 62 9 0 8 -3 -2 -10 -9 -6 -10 -10 -3 -10 6 0 18 8 25 18 7 10 21 21 31 25
9 3 17 12 17 18 0 8 -5 7 -16 -2 -9 -7 -5 3 8 23 13 20 26 34 29 32 10 -6 40
32 37 47 -2 8 3 13 11 11 8 -2 11 3 8 13 -4 8 -2 15 4 15 6 0 9 7 5 15 -3 8 0
14 7 12 7 -1 11 5 9 14 -1 9 5 19 13 23 9 3 13 10 10 16 -3 6 0 13 9 16 8 3
13 14 11 25 -2 10 1 21 6 24 5 4 7 11 4 16 -4 5 -2 9 2 9 5 0 17 18 27 40 10
22 22 40 27 40 6 0 7 5 4 10 -13 21 28 8 120 -37 107 -53 110 -59 80 -155 -8
-27 -12 -48 -10 -48 6 0 -75 -174 -84 -180 -4 -3 -17 -21 -29 -40 -39 -64
-115 -129 -187 -161 -49 -22 -146 -91 -179 -128 l-19 -21 516 0 515 0 29 38
c73 97 90 171 53 237 l-23 40 32 -35 c28 -31 31 -40 27 -82 -4 -39 -23 -97
-63 -185 -4 -10 14 -13 74 -13 l80 0 21 47 c23 53 47 127 61 190 8 39 7 43
-13 49 -26 8 -212 111 -244 136 -30 22 -154 81 -216 102 -56 19 -93 20 -169 2
-31 -8 -55 -11 -52 -6 2 4 33 13 67 20 l63 13 -50 13 -50 13 55 -6 c30 -3 96
-18 146 -34 49 -16 112 -29 140 -30 63 -2 193 -62 252 -116 7 -7 17 -13 21
-13 21 0 81 -76 86 -109 3 -20 10 -65 16 -101 9 -53 8 -74 -4 -117 l-16 -53
58 0 c38 0 61 4 64 13 13 34 -20 193 -65 312 -19 51 -69 117 -145 193 -39 39
-68 72 -62 72 20 0 158 -148 202 -216 55 -85 76 -135 112 -272 l28 -102 411 2
c402 3 411 3 413 23 3 18 2 18 -5 2 -6 -15 -13 -7 -35 40 -49 107 -59 155 -55
258 3 74 1 93 -8 81 -6 -9 -13 -13 -17 -10 -3 3 -8 -4 -12 -15 -3 -11 -12 -18
-20 -15 -7 3 -16 0 -21 -7 -5 -8 -3 -10 7 -5 8 4 6 1 -5 -6 -10 -7 -31 -23
-46 -35 -35 -29 -46 -29 -54 0 -6 22 20 148 50 240 16 51 74 157 96 175 8 6
79 23 158 37 139 25 423 82 522 106 26 6 57 8 69 4 14 -5 19 -4 15 4 -4 6 0
11 9 11 9 0 14 -4 11 -9 -3 -5 7 -11 23 -13 23 -3 35 2 54 24 32 36 56 38 33
3 -20 -30 -20 -35 -1 -35 8 0 15 -6 15 -12 0 -7 5 -5 11 4 5 10 17 18 26 18
14 0 14 -2 -3 -15 -17 -13 -15 -14 31 -8 28 3 65 12 83 19 17 7 32 9 32 3 0
-5 -6 -9 -14 -9 -8 0 -21 -6 -28 -13 -15 -15 -49 -31 -60 -29 -5 1 -8 -3 -8
-9 0 -6 -6 -9 -14 -6 -8 3 -31 -7 -53 -23 -21 -16 -45 -30 -54 -30 -9 0 -22
-6 -28 -14 -7 -8 -23 -17 -36 -20 -14 -4 -25 -11 -25 -16 0 -6 -7 -10 -17 -10
-9 0 -31 -11 -49 -25 -18 -14 -35 -25 -38 -25 -3 0 -28 -16 -55 -35 -59 -42
-69 -44 -42 -6 63 89 208 199 292 221 22 6 39 13 38 14 -6 5 -159 -25 -214
-42 -27 -8 -84 -16 -125 -17 -50 -1 -86 -8 -110 -20 -19 -10 -42 -19 -50 -19
-8 -1 -34 -8 -57 -15 -33 -11 -42 -19 -47 -42 -3 -16 -18 -42 -33 -57 -50 -48
-62 -77 -62 -136 1 -42 -6 -71 -28 -119 -38 -81 -57 -158 -50 -208 4 -30 1
-41 -11 -48 -15 -9 -15 -11 2 -30 11 -12 15 -21 11 -21 -5 0 -4 -5 3 -12 7 -7
12 -20 12 -30 0 -16 9 -18 66 -18 59 0 65 2 59 18 -16 42 -25 122 -19 177 9
83 49 247 69 281 9 16 13 20 9 9 -8 -25 -22 -104 -30 -170 -3 -27 -9 -67 -14
-88 -4 -20 -5 -37 -1 -37 4 0 8 -7 8 -15 0 -8 -3 -15 -6 -15 -6 0 -7 -50 -3
-127 l2 -33 1160 0 1160 0 0 1185 c-1 753 -4 1185 -10 1185 -6 0 -10 -5 -10
-11 0 -5 -4 -8 -9 -4 -6 3 -8 -6 -5 -21 3 -15 1 -23 -5 -20 -5 4 -9 -3 -8 -14
1 -11 7 -20 14 -20 18 0 16 -27 -1 -33 -9 -4 -13 -1 -11 6 3 7 -13 23 -35 36
-33 21 -99 81 -156 145 -21 23 -55 111 -61 158 -4 35 -1 57 16 90 11 25 21 57
21 72 0 30 33 100 52 113 14 8 38 12 108 16 101 6 104 48 10 134 -38 36 -57
60 -53 70 3 8 14 13 24 10 23 -6 24 -1 4 20 -18 17 -15 23 12 28 10 1 17 8 15
14 -5 22 29 10 38 -14 5 -14 16 -25 24 -25 8 0 17 -8 19 -17 3 -10 5 96 6 236
l1 254 -26 -24 c-45 -42 -62 -81 -65 -144 -1 -33 -8 -76 -16 -95 -7 -19 -24
-80 -38 -135 -21 -87 -29 -103 -61 -133 -24 -22 -42 -31 -53 -26 -50 21 -63
18 -109 -32 -26 -27 -51 -56 -57 -65 -5 -9 -32 -44 -60 -78 -27 -33 -60 -73
-72 -89 -12 -15 -50 -42 -85 -59 -111 -56 -299 -54 -501 4 -101 29 -101 52 -1
103 38 19 75 42 82 50 12 13 13 13 6 0 -5 -10 0 -9 14 4 12 11 22 16 22 11 0
-4 6 -2 14 4 8 7 33 14 55 16 22 2 52 12 66 21 14 9 28 14 31 11 4 -3 16 3 28
14 14 14 30 19 50 16 20 -3 37 2 49 14 11 10 24 16 29 13 5 -3 7 0 6 8 -2 7 3
12 9 11 7 -2 18 6 25 16 6 11 18 17 26 13 10 -3 28 9 49 34 24 29 33 34 33 21
0 -28 19 -10 37 36 9 22 19 35 21 29 2 -7 8 -12 13 -12 6 0 7 5 4 11 -11 16
91 107 133 118 20 6 40 10 45 11 4 0 21 7 38 15 27 15 48 48 53 85 7 47 21 99
35 125 38 69 72 115 86 115 8 0 15 7 15 15 0 8 14 18 33 23 l32 8 3 438 3 438
-31 34 c-39 45 -39 56 0 19 l30 -29 0 112 c0 83 -3 112 -13 112 -21 0 -110 51
-159 92 -69 57 -90 97 -89 166 1 68 -10 87 -97 167 -34 32 -61 60 -58 62 7 7
85 -46 98 -67 7 -11 18 -20 25 -20 25 0 46 -50 45 -106 0 -30 4 -54 9 -54 5 0
9 -9 9 -20 0 -13 11 -25 27 -33 34 -15 64 -43 55 -52 -4 -3 1 -3 11 1 10 3 17
1 17 -5 0 -6 5 -11 11 -11 6 0 28 -13 49 -30 21 -16 43 -30 49 -30 17 0 15
491 -1 509 -10 11 -10 13 0 7 9 -6 12 135 12 688 l0 696 -600 0 c-330 0 -600
-2 -600 -5 0 -2 29 -48 65 -101 37 -54 67 -112 71 -132 3 -21 8 -46 11 -57 5
-17 4 -18 -11 -6 -12 10 -16 10 -16 1 0 -6 9 -14 20 -17 24 -6 35 -70 27 -149
-3 -33 -2 -52 4 -48 5 3 0 -11 -11 -31 -26 -47 -25 -57 10 -95 27 -29 34 -32
72 -26 95 14 87 19 118 -70 15 -44 34 -94 43 -110 14 -28 14 -29 -8 -29 -13 0
-21 3 -18 8 2 4 -5 28 -17 53 l-22 45 -24 -22 c-56 -53 -34 -144 59 -242 33
-34 66 -72 74 -84 8 -13 19 -23 23 -23 9 0 48 -30 97 -77 28 -26 33 -38 33
-77 0 -26 7 -63 15 -83 8 -20 14 -38 11 -40 -6 -6 -35 71 -47 124 -14 64 -24
73 -79 73 -61 0 -167 47 -196 86 -36 50 -46 74 -55 142 -11 74 4 137 48 204
28 42 41 112 24 123 -13 8 -72 -13 -83 -29 -5 -7 -8 -6 -8 3 0 10 -8 12 -30 8
-24 -5 -33 -1 -53 24 l-23 30 -18 -56 c-10 -31 -19 -55 -22 -53 -2 3 5 31 16
63 11 32 20 68 20 80 0 11 5 26 12 33 8 8 9 12 1 12 -6 0 -13 -6 -16 -12 -8
-22 -19 0 -12 23 5 16 9 18 15 9 5 -8 8 -3 7 13 -1 15 -8 29 -15 32 -7 3 -10
9 -7 15 3 5 2 10 -4 10 -6 0 -13 16 -17 35 -3 19 -10 32 -15 29 -5 -3 -9 4 -9
15 0 12 -4 21 -9 21 -5 0 -16 17 -25 38 -9 20 -29 61 -46 91 -34 64 -64 133
-62 144 1 4 -3 7 -8 7 -6 0 -10 11 -10 25 0 14 -4 25 -10 25 -5 0 -10 7 -10
15 0 12 -17 15 -96 15 l-96 0 7 -32 c4 -18 16 -49 26 -69 19 -38 40 -174 38
-244 -1 -23 -4 -30 -6 -18 -2 13 -14 29 -25 37 -11 8 -21 25 -22 39 0 14 -4
23 -7 21 -4 -2 -20 27 -35 64 -30 72 -42 93 -89 159 -28 40 -33 42 -79 43
l-49 0 20 -22 c51 -56 135 -250 174 -403 34 -130 36 -198 9 -322 -24 -108 -33
-135 -68 -190 -23 -36 -30 -41 -52 -37 -64 14 -63 11 -16 72 72 94 96 143 102
213 10 101 -12 305 -40 389 -23 67 -109 210 -126 210 -10 0 22 -92 57 -165 24
-52 28 -71 26 -141 -1 -58 -9 -103 -27 -155 -27 -79 -28 -94 -2 -55 9 14 26
30 37 37 20 10 21 9 15 -17 -12 -46 -103 -198 -150 -251 -55 -60 -105 -88
-142 -79 -28 7 -27 8 47 75 82 76 93 95 135 226 49 155 42 362 -14 430 -31 37
-166 131 -214 149 -27 10 -48 22 -48 27 0 13 -312 11 -346 -1 -15 -6 -39 -22
-52 -35 -14 -14 -33 -25 -42 -25 -10 0 -21 -7 -24 -16 -3 -8 -2 -13 2 -10 4 2
33 7 64 10 72 6 69 -9 -10 -46 -32 -15 -67 -36 -79 -47 -11 -11 -23 -18 -25
-16 -2 3 -33 -22 -68 -55 -35 -33 -70 -60 -77 -60 -7 0 -13 -7 -13 -16 0 -8
-5 -12 -10 -9 -6 3 -10 -1 -10 -9 0 -8 4 -17 9 -20 4 -3 9 -36 10 -73 3 -103
48 -191 155 -304 52 -54 54 -59 32 -59 -17 0 -36 15 -64 48 -56 68 -106 143
-121 183 -27 71 -44 109 -48 105 -7 -7 17 -151 37 -227 9 -38 16 -70 14 -72
-2 -2 -30 1 -63 7 l-59 9 -6 46 c-3 25 -15 63 -25 86 -37 75 -54 166 -55 277
-1 58 -3 104 -6 102 -14 -15 -53 -135 -55 -174 -2 -25 7 -88 20 -140 12 -52
26 -112 30 -134 l6 -39 -63 7 c-93 11 -109 16 -119 43 -7 20 -4 37 14 77 34
72 56 203 56 331 -1 94 3 120 25 178 14 37 26 72 26 77 0 6 -95 10 -254 10
l-253 0 0 -45 c0 -25 4 -45 10 -45 6 0 7 -3 4 -6 -4 -4 7 -24 24 -45 21 -27
36 -37 50 -34 17 4 19 2 8 -11 -10 -12 -9 -13 5 -8 9 3 24 3 34 -1 16 -7 15
-8 -3 -14 -18 -7 -16 -10 18 -32 38 -25 49 -49 22 -49 -19 0 -19 -5 1 -35 9
-14 23 -25 30 -25 8 0 14 -9 14 -19 0 -10 7 -22 16 -25 9 -4 14 -13 10 -21 -3
-9 0 -15 8 -15 8 0 14 -10 15 -22 0 -13 2 -45 4 -73 2 -27 0 -55 -5 -62 -6 -7
-7 -17 -3 -22 3 -6 -2 -22 -12 -36 -14 -18 -27 -24 -55 -25 -41 0 -44 4 -27
47 24 64 4 153 -35 153 -39 0 -176 197 -176 253 0 10 -4 16 -8 13 -5 -3 -6 8
-4 25 4 30 -6 37 -26 17 -7 -7 -12 -9 -12 -4 0 10 27 36 32 31 2 -2 4 7 3 20
0 14 -3 25 -7 25 -5 0 -13 0 -19 0 -5 0 -8 -4 -4 -9 6 -11 -49 -71 -65 -71 -6
0 -1 13 11 29 12 16 18 34 15 40 -4 6 -2 11 3 11 6 0 11 5 11 11 0 6 -10 9
-22 7 -17 -2 -23 -9 -22 -25 0 -13 -1 -21 -4 -18 -7 7 -25 -17 -54 -71 -15
-28 -25 -54 -21 -58 3 -3 1 -6 -5 -6 -6 0 -9 -7 -6 -15 4 -8 1 -15 -5 -15 -6
0 -11 -8 -11 -17 0 -10 -10 -34 -22 -53 -25 -40 -40 -65 -77 -132 -79 -142
-84 -148 -120 -148 -28 0 -32 3 -26 18 62 154 132 414 151 560 l7 52 -162 0
c-88 0 -161 -2 -161 -5 0 -8 20 -32 63 -76 21 -22 35 -39 30 -39 -4 0 -3 -4 2
-8 6 -4 21 -27 34 -52 34 -62 40 -204 12 -282 -11 -29 -22 -74 -26 -100 -3
-25 -12 -51 -19 -57 -14 -11 -255 -35 -265 -26 -2 3 6 29 18 58 79 177 74 153
75 377 l1 205 -29 3 c-27 3 -28 2 -23 -36 2 -21 8 -45 12 -53 7 -11 6 -12 -6
-2 -13 10 -16 10 -16 -2 0 -8 6 -15 14 -15 7 0 13 -4 13 -10 0 -5 -4 -10 -9
-10 -5 0 -8 -8 -6 -17 2 -10 4 -21 4 -25 1 -4 9 -5 19 -2 16 5 16 5 0 -9 -10
-8 -16 -16 -14 -18 10 -12 -14 -141 -31 -165 -11 -16 -42 -69 -68 -119 l-48
-89 51 43 c29 24 66 66 83 92 17 27 33 49 36 49 13 0 -54 -91 -131 -180 -70
-80 -93 -100 -114 -100 -15 0 -38 -3 -52 -7 -25 -7 -25 -6 -7 20 20 30 21 37
7 37 -5 0 -10 -6 -10 -13 0 -30 -42 -51 -138 -68 -147 -27 -178 -25 -242 16
-30 19 -59 35 -64 35 -5 0 -7 3 -4 6 3 3 40 -11 81 -31 57 -28 81 -34 103 -29
28 7 118 74 110 82 -2 2 -28 -4 -57 -12 l-52 -16 23 25 c27 29 25 33 -21 39
-149 20 -191 35 -230 83 -8 9 2 6 21 -9 44 -32 112 -48 213 -50 67 -2 81 1 99
19 l21 21 -44 -4 c-39 -4 -41 -3 -18 6 28 11 90 96 121 164 24 51 22 83 -7
131 -13 22 -31 54 -41 70 l-17 30 25 -23 c22 -20 26 -21 32 -7 3 9 6 39 6 66
0 28 5 59 10 70 10 19 5 19 -225 19 -216 0 -236 -1 -241 -17 -12 -38 -59 -122
-62 -110 -1 7 9 34 23 60 14 27 25 52 25 58 0 5 -61 9 -147 9 -125 0 -149 -3
-167 -17 -20 -17 -20 -17 -7 0 13 16 -2 17 -282 17 -257 0 -296 -2 -301 -15
-3 -9 -11 -15 -18 -14 -25 3 -38 -1 -38 -12 0 -8 5 -8 15 1 8 7 15 8 15 3 0
-10 -114 -123 -124 -123 -3 0 11 21 31 48 20 26 40 46 44 45 5 -2 6 3 3 11 -3
7 2 19 11 26 8 7 15 16 15 21 0 5 -158 9 -355 9 l-355 0 0 -610z m4789 497
c88 -68 141 -158 141 -240 0 -15 9 -57 21 -92 21 -66 25 -123 15 -213 -8 -70
-25 -101 -86 -153 -66 -57 -107 -78 -149 -79 -35 0 -35 0 25 35 32 19 78 55
101 80 35 38 41 51 40 85 -2 35 -4 38 -15 23 -36 -50 -140 -145 -180 -164 -40
-20 -54 -21 -156 -15 -61 4 -133 13 -161 21 l-50 14 70 -6 c81 -6 182 10 205
33 13 13 11 13 -21 0 -26 -11 -65 -15 -126 -13 -80 2 -96 6 -158 37 -93 47
-118 70 -145 132 -45 104 -34 233 25 288 31 29 32 18 5 -75 -11 -39 -20 -100
-20 -137 0 -78 19 -108 70 -108 16 0 46 -9 67 -20 87 -45 227 -50 303 -12 122
61 170 108 170 167 0 79 -58 195 -98 195 -8 0 -12 3 -9 7 4 3 -5 15 -20 25
-31 20 -24 24 10 6 39 -20 97 -71 124 -107 l26 -36 -31 29 -31 29 19 -50 c36
-95 24 -165 -36 -212 -27 -21 -29 -36 -3 -26 37 15 135 209 122 243 -4 10 -2
13 5 8 17 -10 16 55 0 75 -58 70 -179 121 -282 119 -39 -1 -76 -1 -83 -1 -22
2 -1 32 30 44 l31 13 -58 18 c-31 10 -56 19 -54 21 8 7 162 -27 195 -43 21
-11 52 -23 69 -26 17 -4 54 -22 82 -41 28 -18 57 -37 63 -41 7 -4 -1 17 -17
47 -22 42 -44 64 -96 99 -66 44 -81 64 -55 73 19 7 40 -4 106 -56z m-3476 -62
c6 -48 13 -68 44 -117 13 -21 21 -38 18 -38 -8 0 26 -64 38 -72 6 -3 12 -14
13 -23 1 -9 11 -26 21 -37 10 -11 17 -22 15 -24 -5 -8 35 -54 47 -54 6 0 11
-4 11 -9 0 -10 72 -57 160 -104 30 -16 68 -40 83 -53 16 -13 35 -24 43 -24 9
0 13 -4 9 -9 -3 -5 -34 -12 -69 -16 -52 -6 -70 -4 -102 13 -60 31 -185 159
-232 237 -23 39 -42 63 -43 55 -1 -8 -5 3 -10 25 -4 22 -19 73 -33 114 -16 45
-26 95 -26 129 0 63 5 66 13 7z m3038 -17 c-38 -39 -74 -88 -94 -127 -17 -35
-33 -59 -35 -53 -9 27 60 128 132 194 73 68 71 59 -3 -14z m-2311 2 c0 -6 -25
-10 -56 -10 -74 0 -173 -26 -202 -53 -19 -18 -23 -29 -19 -59 3 -21 1 -40 -3
-43 -22 -14 -13 116 10 139 8 8 9 6 4 -8 -7 -17 -6 -17 26 -1 55 28 240 55
240 35z m1034 -35 c-4 -8 -11 -15 -16 -15 -6 0 -5 6 2 15 7 8 14 15 16 15 2 0
1 -7 -2 -15z m2414 -11 c-4 -3 2 -14 12 -24 10 -10 26 -44 36 -76 22 -72 25
-270 6 -359 -7 -33 -17 -85 -22 -115 -8 -57 -59 -200 -80 -225 -7 -8 -22 -13
-34 -10 -139 31 -206 48 -206 53 0 4 12 20 26 37 14 16 32 45 41 65 9 19 24
53 34 75 10 22 21 54 25 70 4 17 11 35 16 41 5 7 11 25 13 40 3 16 11 65 20
109 8 44 18 97 21 118 4 20 10 40 15 43 4 2 6 11 3 18 -3 8 4 32 15 55 12 22
21 47 21 55 0 8 8 20 18 25 19 12 28 14 20 5z m-1998 -80 c0 -2 -7 -4 -15 -4
-8 0 -15 4 -15 10 0 5 7 7 15 4 8 -4 15 -8 15 -10z m-3004 -13 c-3 -5 -32 -19
-63 -32 -32 -13 -80 -36 -107 -51 -27 -16 -51 -27 -53 -24 -3 3 -14 -4 -25
-14 -11 -10 -26 -16 -34 -13 -7 2 -30 -1 -50 -7 -25 -9 -39 -9 -46 -2 -14 14
-4 18 167 71 72 23 148 50 170 60 48 23 47 23 41 12z m5374 -51 c-6 -23 -14
-40 -16 -37 -3 3 0 24 7 46 16 54 24 46 9 -9z m-1412 10 l67 -1 -52 -25 c-50
-24 -55 -25 -84 -10 l-32 16 6 -93 c5 -79 11 -102 41 -162 l35 -70 -30 35
c-53 62 -69 108 -69 199 0 88 12 126 37 117 8 -3 45 -6 81 -6z m-2644 -60 c16
-20 14 -19 -12 4 -17 17 -32 37 -32 45 1 12 3 11 12 -4 6 -11 20 -31 32 -45z
m52 44 c18 -14 18 -14 -6 -3 -31 14 -36 19 -24 19 6 0 19 -7 30 -16z m2702
-24 c17 -27 10 -25 -19 6 -13 14 -17 23 -9 19 9 -3 21 -14 28 -25z m-337 -11
c-9 -22 -10 -22 -10 -3 -1 11 2 24 6 27 12 12 14 0 4 -24z m-2281 -1 c10 -6 7
-7 -10 -2 -14 3 -32 11 -40 16 -10 6 -7 7 10 2 14 -3 32 -11 40 -16z m125 -6
c-19 -16 -65 -32 -65 -22 0 6 -10 6 -26 0 -14 -6 -51 -9 -82 -9 l-57 2 55 8
c30 5 78 13 105 18 70 12 80 12 70 3z m3805 -37 c0 -8 -4 -15 -10 -15 -5 0
-10 7 -10 15 0 8 5 15 10 15 6 0 10 -7 10 -15z m-4505 -45 c4 -19 8 -39 9 -45
5 -25 37 -72 61 -90 14 -11 40 -31 58 -45 35 -28 79 -57 115 -76 21 -11 18
-13 -40 -27 l-62 -16 -44 36 c-33 27 -42 31 -33 15 6 -12 20 -26 32 -32 22
-13 18 -25 -11 -33 -16 -4 -28 9 -66 69 -25 40 -58 83 -72 94 -27 19 -27 19
-4 20 13 0 33 -5 44 -11 20 -11 21 -9 15 27 -12 77 -20 159 -14 154 3 -3 9
-21 12 -40z m3291 18 c5 4 6 3 2 -2 -4 -5 -2 -16 5 -24 11 -13 9 -14 -10 -1
-13 7 -25 20 -28 28 -4 11 -2 11 8 3 8 -7 18 -8 23 -4z m1164 -18 c11 -8 7 -9
-15 -4 -37 8 -45 14 -19 14 10 0 26 -5 34 -10z m-5010 -20 c0 -5 -7 -7 -15 -4
-8 4 -15 8 -15 10 0 2 7 4 15 4 8 0 15 -4 15 -10z m1167 4 c-3 -3 -12 -4 -19
-1 -8 3 -5 6 6 6 11 1 17 -2 13 -5z m-1047 -44 c82 -33 229 -138 282 -201 23
-27 44 -49 47 -49 3 0 5 29 3 64 -4 67 -11 80 -93 151 -32 28 -38 30 -119 29
l-85 -1 50 23 c66 30 127 30 191 0 48 -22 87 -54 48 -39 -15 6 -15 4 1 -20 9
-14 19 -54 22 -88 4 -38 15 -78 29 -103 13 -23 24 -44 24 -47 0 -3 -40 -18
-90 -34 l-90 -29 -48 23 c-27 13 -62 36 -79 51 -17 16 -32 27 -34 25 -2 -1
-10 3 -17 11 -7 8 -9 14 -5 14 4 0 -2 7 -13 15 -12 8 -31 12 -43 10 -11 -2
-21 1 -21 6 0 6 -7 6 -18 0 -13 -7 -22 -7 -29 0 -8 8 -17 7 -32 0 -12 -7 -21
-9 -21 -6 0 3 -19 -7 -42 -23 -24 -16 -53 -32 -65 -36 -13 -4 -23 -11 -23 -17
0 -5 -15 -16 -32 -24 -18 -8 -48 -24 -67 -35 -58 -36 -48 -12 24 56 106 98
186 138 306 151 50 5 94 -11 139 -52 14 -12 43 -25 65 -29 34 -5 37 -5 20 5
-11 7 -22 15 -25 19 -17 22 -103 68 -120 65 -11 -2 -20 1 -20 7 0 6 -8 17 -17
25 -10 8 -12 12 -5 8 17 -9 15 3 -3 22 -9 8 -24 13 -35 10 -13 -3 -20 2 -24
20 -4 14 -11 21 -18 17 -6 -4 -8 -3 -4 4 3 6 -2 18 -11 28 -16 16 -16 16 7 9
14 -4 54 -20 90 -35z m3705 -9 c-16 -32 -36 -43 -62 -35 -10 3 -24 8 -32 10
-20 6 46 47 76 47 13 0 20 4 16 10 -3 6 -1 7 5 3 9 -5 8 -15 -3 -35z m-1555
-180 c17 -18 30 -36 30 -42 0 -5 5 -9 11 -9 6 0 8 9 5 20 -3 11 -9 29 -12 41
-6 20 -4 21 52 15 33 -3 102 -8 154 -12 123 -7 232 -26 237 -40 2 -6 -5 -22
-16 -35 -16 -20 -21 -21 -35 -10 -14 11 -16 11 -16 -2 0 -19 7 -24 46 -32 52
-11 58 -10 62 8 3 15 -1 17 -22 11 -31 -8 -32 0 -5 34 24 31 25 31 209 1 69
-12 130 -25 137 -31 7 -5 17 -7 23 -3 20 12 29 -6 12 -24 -15 -16 -19 -16 -35
-3 -16 14 -20 14 -39 -5 -19 -20 -20 -23 -5 -37 8 -9 30 -16 47 -16 26 0 31 3
25 18 -5 14 -4 15 6 5 7 -7 16 -13 19 -13 11 0 31 51 24 62 -5 7 3 9 22 5 162
-29 200 -39 210 -52 6 -8 15 -11 19 -7 5 4 5 -1 2 -11 -4 -12 0 -28 11 -42
l19 -24 34 28 34 29 -35 16 c-34 16 -34 16 -5 10 17 -3 66 -12 109 -20 73 -12
102 -27 91 -45 -3 -3 14 -7 38 -7 23 -1 68 -8 100 -17 70 -18 68 -18 61 -2 -4
11 4 12 46 3 27 -5 50 -13 50 -18 0 -4 7 -5 15 -2 8 3 38 1 67 -6 29 -7 100
-23 158 -36 58 -14 133 -32 166 -40 l62 -16 6 -46 c3 -26 2 -50 -4 -56 -14
-14 -76 17 -107 55 -24 28 -26 29 -44 13 -22 -20 -11 -32 31 -36 14 -1 -11 -4
-55 -8 l-80 -6 39 -18 c45 -20 35 -36 -21 -36 -22 0 -36 -6 -44 -21 -10 -19
-18 -21 -94 -17 -104 4 -124 17 -80 56 19 16 23 23 11 19 -12 -5 -26 -1 -37 9
-9 8 -26 14 -38 12 -19 -3 -18 -5 10 -46 16 -23 29 -45 29 -47 0 -3 -89 -5
-197 -5 l-198 1 35 32 c75 68 75 68 -31 66 -103 -2 -129 -14 -129 -56 0 -36
-33 -25 -45 15 -9 30 -12 32 -57 32 -35 0 -48 -4 -48 -14 0 -8 6 -18 12 -22
15 -10 -21 -22 -69 -23 -22 -1 -33 -6 -33 -16 0 -13 -29 -15 -197 -15 -151 -1
-207 -4 -238 -16 -22 -8 -46 -16 -53 -18 -8 -1 -42 -24 -77 -49 -35 -26 -68
-47 -74 -47 -6 0 -11 -7 -11 -16 0 -8 -17 -36 -38 -62 -22 -26 -45 -61 -52
-79 -18 -47 -34 -57 -69 -45 -23 8 -32 7 -41 -2 -19 -23 -1 -46 36 -46 31 0
34 -2 29 -23 -12 -45 -13 -63 -14 -132 l-1 -70 -40 1 c-35 0 -40 -2 -45 -27
-9 -39 0 -49 46 -49 l39 0 0 -105 0 -104 -33 1 c-51 2 -57 -6 -57 -80 l0 -67
45 -20 c49 -21 63 -55 23 -55 -29 -1 -63 -25 -49 -35 7 -4 6 -18 -4 -42 -20
-48 -19 -49 16 -14 17 17 39 31 49 31 18 0 19 -10 19 -162 -1 -90 0 -171 0
-180 1 -16 13 -18 106 -18 66 0 105 -4 105 -10 0 -7 6 -7 19 0 28 15 781 14
781 -1 0 -8 4 -8 14 0 10 8 105 11 337 10 178 -1 318 -3 311 -6 -19 -7 74 -93
101 -93 27 1 55 21 50 37 -2 6 1 14 6 18 6 3 11 15 11 26 0 19 8 19 388 17
l387 -3 55 -27 c56 -28 140 -98 140 -117 0 -6 -20 1 -44 14 -25 14 -52 25 -60
25 -9 0 -23 11 -32 25 -20 31 -26 31 -59 1 l-26 -24 30 -7 c17 -4 52 -24 78
-46 26 -21 51 -39 56 -39 12 0 77 -54 77 -63 0 -5 -13 -6 -30 -2 l-30 7 0 -51
c0 -49 0 -50 35 -57 19 -3 38 -10 40 -15 11 -17 -35 -88 -75 -116 -22 -15 -40
-34 -40 -41 0 -7 -26 -25 -57 -40 -56 -26 -64 -27 -272 -30 -130 -2 -222 0
-235 6 -29 14 -109 32 -142 32 -21 0 -25 -4 -21 -20 5 -18 0 -20 -44 -20 l-50
0 16 30 c19 36 13 50 -20 50 -18 0 -28 -10 -42 -40 l-18 -39 -144 -1 -144 0 6
44 6 45 -45 7 c-25 3 -76 2 -113 -4 -36 -6 -75 -9 -86 -6 -15 4 -25 -3 -38
-25 -31 -52 -61 -56 -472 -56 l-370 0 2 35 c2 27 0 30 -6 15 -8 -18 -9 -19
-16 -3 -4 10 -11 15 -16 12 -5 -3 -7 -9 -4 -14 7 -11 -12 -50 -24 -50 -5 0
-14 14 -20 30 -6 19 -17 30 -29 30 -11 0 -25 7 -32 15 -8 10 -30 15 -62 15
-45 0 -48 -1 -38 -19 5 -11 14 -31 20 -45 l10 -26 -98 0 -97 1 28 24 c17 15
41 25 60 26 l32 0 -39 15 c-49 18 -73 11 -122 -32 -37 -34 -38 -36 -20 -49 16
-12 18 -27 18 -102 -1 -153 4 -139 -47 -135 -36 3 -45 1 -45 -12 0 -9 5 -16
10 -16 6 0 26 -16 45 -35 27 -26 35 -43 35 -71 0 -40 -23 -44 -28 -5 -2 12
-10 25 -18 28 -8 3 -12 8 -10 12 7 11 -11 34 -21 28 -5 -3 -10 -28 -12 -55 -2
-43 1 -50 24 -60 14 -7 32 -27 40 -45 7 -17 17 -32 22 -32 14 0 7 -263 -7
-280 -11 -13 -11 -16 1 -13 8 2 14 -5 14 -17 0 -29 -32 -31 -55 -3 -28 33 -40
10 -40 -80 l0 -73 26 20 c46 36 75 20 67 -36 -5 -32 -6 -32 -33 -18 -24 13
-30 13 -40 0 -7 -8 -13 -28 -13 -45 -2 -28 2 -33 37 -45 21 -8 42 -18 45 -24
10 -15 12 -281 3 -321 -5 -21 -17 -39 -30 -46 -16 -8 -19 -13 -10 -22 7 -7 17
-12 24 -12 7 0 14 -25 18 -62 3 -35 9 -78 12 -96 5 -26 3 -31 -8 -27 -8 3 -21
-1 -28 -10 -21 -26 -31 -17 -13 12 l17 28 -23 -20 c-17 -15 -21 -26 -17 -49 9
-41 65 -136 81 -136 8 0 32 -9 54 -21 22 -11 45 -18 50 -15 5 4 13 1 17 -5 8
-14 -14 -29 -43 -29 -27 0 -29 -11 -5 -33 10 -9 34 -15 62 -15 25 1 60 -7 78
-16 18 -9 41 -15 50 -12 9 3 39 -1 66 -9 33 -10 95 -15 190 -15 118 0 148 -4
184 -20 l42 -19 0 21 c0 18 4 20 31 14 17 -3 38 -6 45 -6 8 0 14 -10 14 -22 0
-17 -3 -19 -12 -10 -8 8 -16 6 -30 -10 -34 -40 -24 -48 57 -48 l75 0 0 34 c0
71 -20 67 316 65 171 0 307 -5 310 -10 3 -5 -2 -23 -10 -41 -9 -17 -16 -35
-16 -40 0 -11 68 -10 75 2 3 6 15 10 26 10 10 0 19 -4 19 -10 0 -6 35 -10 86
-10 77 0 86 2 91 20 6 24 19 26 27 5 14 -38 101 10 94 52 -3 17 18 18 405 20
224 1 407 0 407 -2 0 -2 -32 -14 -70 -26 -58 -17 -78 -19 -111 -11 -34 9 -38
8 -28 -4 19 -23 3 -28 -43 -15 -39 12 -43 12 -56 -8 -8 -12 -21 -21 -28 -21
-8 0 -14 -4 -14 -9 0 -8 -35 -19 -128 -41 -32 -8 -33 -7 -17 9 8 10 34 27 57
37 l42 19 -49 7 c-57 8 -70 0 -79 -46 -8 -42 -41 -56 -134 -56 -54 0 -70 -4
-89 -22 -17 -16 -68 -32 -191 -60 -173 -39 -226 -45 -237 -28 -9 14 -94 54
-101 47 -3 -2 1 -11 9 -18 7 -8 16 -22 20 -33 5 -14 4 -17 -8 -12 -8 3 -15 1
-15 -3 0 -5 6 -11 13 -14 13 -4 -130 -39 -258 -62 -44 -7 -95 -17 -112 -21
-27 -5 -33 -3 -33 10 0 9 -4 16 -9 16 -5 0 -8 -7 -7 -16 1 -19 -35 -27 -439
-98 -340 -60 -513 -84 -690 -96 -162 -10 -445 -13 -445 -5 0 4 7 19 15 35 15
28 14 30 -5 30 -11 0 -29 -9 -40 -20 -27 -27 -40 -25 -53 10 -7 19 -18 30 -30
30 -11 0 -55 16 -100 35 -44 19 -83 32 -86 29 -3 -3 2 -10 12 -15 9 -6 15 -14
12 -20 -4 -5 2 -9 13 -9 10 0 24 -10 30 -23 8 -17 11 -18 11 -4 1 9 4 17 9 17
7 0 49 -50 66 -77 15 -25 -17 -12 -45 18 -16 17 -29 28 -29 24 0 -4 -7 -1 -17
6 -9 8 -35 14 -58 15 -33 1 -72 17 -171 71 -206 113 -254 143 -249 156 4 8 -6
12 -26 13 -42 2 -59 20 -34 37 17 13 17 14 -6 20 -13 3 -33 4 -45 1 -16 -4
-48 13 -123 67 -128 91 -131 95 -89 104 18 3 45 11 61 17 20 8 31 7 42 -2 11
-10 15 -10 15 0 0 6 6 10 13 7 6 -2 12 -10 12 -17 0 -7 6 -15 13 -18 11 -3 12
0 3 16 -6 12 -7 23 -2 26 13 8 200 6 205 -3 3 -4 2 -17 -1 -29 -4 -17 -11 -21
-32 -17 -25 5 -25 5 -3 -6 12 -7 22 -19 22 -27 0 -10 12 -3 33 19 43 48 74 65
126 73 33 5 48 3 62 -10 10 -9 25 -14 34 -10 13 5 13 10 -5 43 -11 21 -20 42
-20 46 0 5 26 38 59 73 62 68 109 147 136 231 l17 53 45 0 44 0 -3 47 -3 48
-42 -2 -43 -2 0 255 c0 277 1 283 56 254 25 -14 41 -9 29 10 -3 6 -23 18 -43
28 l-37 17 -3 118 -3 118 36 -7 c30 -5 35 -4 35 13 0 11 7 28 15 39 8 11 14
41 15 72 l0 54 -47 -4 -48 -3 -3 79 c-4 107 -1 113 44 86 39 -25 39 -25 48 11
5 24 1 29 -39 48 l-45 21 0 55 0 55 43 -2 42 -3 3 49 3 50 -20 -25 c-27 -31
-27 -10 -1 24 l21 26 -48 3 -48 3 1 40 c1 22 3 80 5 128 l3 88 25 -6 c25 -5
25 -5 7 10 -11 8 -23 15 -27 15 -12 0 -16 60 -5 74 15 19 53 29 60 17 4 -5 2
-12 -4 -16 -5 -3 -10 -13 -10 -22 0 -14 3 -14 20 2 16 14 20 31 20 81 0 61
-11 87 -26 63 -8 -14 -34 16 -34 38 0 7 -9 22 -21 34 -16 16 -19 27 -13 52 4
18 6 37 5 42 -2 6 -4 194 -7 418 l-4 409 45 44 c58 55 59 83 4 53 -32 -16 -52
6 -45 50 15 97 16 99 55 93 23 -3 30 0 36 18 9 27 -3 128 -16 135 -5 4 -9 0
-9 -7 0 -8 -15 -29 -34 -47 l-34 -33 -7 44 c-9 54 -44 134 -84 192 -17 25 -31
47 -31 50 0 10 49 6 55 -4 3 -5 18 -10 32 -10 20 0 23 -3 14 -13 -6 -8 -8 -17
-4 -20 9 -10 43 -9 43 1 0 13 -52 58 -87 76 -39 20 -43 20 -43 2 0 -30 -27
-21 -80 27 -56 51 -158 107 -196 107 -12 0 -39 13 -61 29 -45 33 -100 51 -153
51 -20 0 -41 5 -48 12 -9 9 -12 9 -12 0 0 -7 -12 -12 -27 -12 -16 0 -36 -7
-45 -14 -16 -12 -14 -14 23 -26 67 -22 55 -30 -45 -30 -65 0 -96 4 -96 11 0 8
-14 9 -42 5 -29 -4 -38 -3 -28 3 23 15 6 23 -34 16 -21 -4 -36 -13 -36 -21 0
-11 -27 -14 -139 -14 -146 0 -151 1 -151 48 0 9 -4 23 -9 31 -7 11 -14 10 -40
-8 -17 -12 -31 -28 -31 -35 0 -29 -51 -36 -275 -36 -219 0 -225 1 -236 21 -13
25 -14 24 84 75 89 45 256 117 377 161 175 64 462 153 493 153 15 0 17 -23 4
-36 -4 -4 -7 -12 -7 -18 0 -6 5 -5 12 2 7 7 22 12 35 12 13 0 23 6 23 13 0 9
3 8 9 -2 6 -9 11 -10 15 -2 11 17 41 13 68 -9 14 -10 28 -17 31 -14 10 10 -29
45 -57 52 -33 9 -37 24 -7 29 68 10 389 64 409 68 15 4 22 1 22 -9 0 -17 -33
-39 -85 -56 -63 -20 -85 -32 -85 -47 0 -7 1 -13 3 -13 1 0 54 9 117 20 63 11
116 20 117 20 1 0 9 21 19 48 10 26 19 49 21 51 7 10 100 18 114 10 21 -11 33
-50 13 -42 -7 2 -10 11 -8 18 4 10 -1 12 -15 8 -21 -5 -29 -23 -11 -23 6 0 10
-7 10 -16 0 -8 4 -13 9 -10 5 4 20 2 34 -3 28 -11 109 -3 101 10 -3 5 -27 19
-55 30 -81 35 -68 44 81 54 101 8 102 8 95 -14 -3 -11 -2 -21 3 -21 6 0 13
-12 16 -26 7 -25 9 -26 69 -21 34 3 79 9 99 12 32 6 35 9 23 21 -21 21 -61 17
-77 -8 -21 -31 -50 -18 -43 19 3 16 2 21 -1 13 -10 -23 -36 -50 -48 -50 -6 0
-4 5 4 10 10 7 11 12 4 18 -18 13 -26 45 -12 54 7 4 98 6 201 5 l188 -3 29
-33z m3337 -13 c-3 -7 -5 -2 -5 12 0 14 2 19 5 13 2 -7 2 -19 0 -25z m-777 14
c0 -5 -7 -17 -15 -28 -14 -18 -14 -17 -4 9 12 27 19 34 19 19z m777 -54 c-3
-8 -6 -5 -6 6 -1 11 2 17 5 13 3 -3 4 -12 1 -19z m-182 -73 c-15 -43 -21 -75
-15 -84 4 -8 4 -25 0 -37 -5 -12 -7 -24 -4 -27 3 -2 7 -14 9 -26 3 -11 8 -31
11 -43 3 -13 6 -30 6 -38 0 -9 8 -27 18 -40 l19 -25 -4 44 c-3 25 -10 48 -17
53 -10 6 -10 10 1 17 9 6 21 5 32 -2 16 -10 16 -12 1 -25 -9 -7 -12 -11 -6 -8
12 6 16 -9 30 -97 10 -69 41 -127 66 -128 14 -1 8 -4 -16 -10 -42 -10 -50 -7
-114 48 -29 25 -33 36 -43 110 -17 127 -8 266 21 335 13 32 25 56 27 55 1 -2
-8 -34 -22 -72z m232 -27 c-3 -7 -5 -2 -5 12 0 14 2 19 5 13 2 -7 2 -19 0 -25z
m-5562 -88 c13 -6 15 -9 5 -9 -8 0 -22 4 -30 9 -18 12 -2 12 25 0z m5362 -32
c-3 -8 -6 -5 -6 6 -1 11 2 17 5 13 3 -3 4 -12 1 -19z m220 -10 c-3 -8 -6 -5
-6 6 -1 11 2 17 5 13 3 -3 4 -12 1 -19z m-5772 -38 c-10 -11 -20 -18 -23 -15
-3 3 3 14 13 25 10 11 20 18 23 15 3 -3 -3 -14 -13 -25z m5782 -2 c-3 -8 -6
-5 -6 6 -1 11 2 17 5 13 3 -3 4 -12 1 -19z m31 -98 c0 -8 -6 1 -13 20 -7 19
-13 42 -13 50 0 8 6 -1 13 -20 7 -19 13 -42 13 -50z m-1158 20 c-19 -13 -30
-13 -30 0 0 6 10 10 23 10 18 0 19 -2 7 -10z m175 -20 c156 -39 354 -92 370
-99 13 -6 -85 -10 -273 -10 -280 -1 -332 4 -332 29 0 13 58 39 102 46 34 6 38
5 31 -11 -4 -13 -3 -16 6 -11 6 4 11 13 9 19 -1 7 2 22 6 35 6 18 12 21 29 16
12 -4 36 -10 52 -14z m-1135 -40 c0 -5 -4 -10 -10 -10 -5 0 -25 -13 -43 -30
-34 -29 -77 -40 -77 -20 0 6 9 10 19 10 11 0 28 13 38 30 13 22 25 30 45 30
15 0 28 -4 28 -10z m871 -50 l24 -19 -128 -1 c-83 0 -126 4 -122 10 3 6 27 10
53 11 26 0 56 4 67 9 35 15 82 11 106 -10z m1444 -70 c9 -16 13 -30 11 -30 -3
0 -12 14 -21 30 -9 17 -13 30 -11 30 3 0 12 -13 21 -30z m-282 -17 c-7 -2 -19
-2 -25 0 -7 3 -2 5 12 5 14 0 19 -2 13 -5z m102 -24 c19 -17 33 -35 30 -39 -3
-5 0 -12 6 -16 8 -5 9 -3 4 6 -4 7 -4 11 2 9 19 -8 122 -94 122 -103 1 -5 -9
0 -21 11 -22 20 -65 39 -80 35 -5 -1 -8 3 -8 8 0 6 6 11 13 11 6 1 -1 4 -18 8
-21 4 -31 13 -33 29 -2 12 -13 27 -25 34 -28 15 -51 38 -38 38 6 0 26 -14 46
-31z m-1535 -15 c0 -40 -49 -99 -107 -128 -17 -9 -51 -36 -75 -61 -35 -36 -62
-51 -151 -85 -107 -40 -109 -40 -205 -34 -53 4 -115 14 -137 22 -22 8 -54 18
-71 22 -36 8 -36 18 5 -135 12 -43 20 -88 17 -98 -3 -13 5 -30 25 -49 41 -41
51 -64 48 -106 -2 -23 4 -48 16 -66 19 -28 19 -30 -2 -108 -20 -77 -20 -79 -2
-115 27 -53 33 -26 27 132 -5 126 -4 134 16 150 11 10 39 34 62 54 22 20 66
51 97 70 31 19 54 38 51 43 -3 5 0 16 7 24 6 8 9 17 6 20 -9 10 -39 -5 -33
-15 6 -10 -24 -25 -32 -16 -3 3 0 5 6 5 6 0 10 9 9 19 0 11 -4 19 -7 18 -12
-3 -50 15 -50 24 0 6 -9 8 -19 4 -14 -4 -23 0 -30 14 -15 28 -17 27 44 40 39
9 60 9 74 2 11 -6 37 -11 58 -11 21 0 51 -7 67 -15 15 -8 34 -15 41 -15 7 0
24 -9 39 -21 21 -17 34 -19 73 -13 68 10 93 21 131 57 25 24 32 40 34 71 1 37
2 38 5 9 2 -18 6 -33 7 -33 2 0 16 6 32 14 16 7 60 17 98 20 38 4 97 16 130
28 113 39 264 21 349 -42 41 -30 80 -39 92 -20 4 6 26 20 51 31 l44 21 -35 48
c-20 27 -42 71 -51 99 -8 28 -18 51 -23 51 -4 0 -17 18 -30 40 -12 22 -17 40
-12 40 6 0 11 -6 12 -12 0 -10 2 -10 6 -1 3 8 13 4 31 -12 15 -14 30 -25 35
-25 4 0 6 -4 3 -9 -3 -5 13 -12 36 -15 32 -5 39 -9 28 -16 -12 -8 -12 -10 4
-10 11 0 16 -5 13 -13 -5 -14 31 -43 40 -33 3 3 28 -18 54 -47 27 -28 49 -49
49 -45 0 9 30 -14 73 -54 16 -16 31 -28 35 -28 7 0 129 -126 211 -218 65 -74
141 -122 190 -122 21 0 23 2 11 10 -13 8 -12 10 3 10 9 0 17 5 17 11 0 5 4 7
10 4 6 -3 7 1 4 9 -4 11 0 16 10 16 25 0 19 36 -11 64 -20 19 -24 29 -16 37
16 16 44 7 61 -21 l16 -25 -25 23 c-24 21 -49 29 -49 16 0 -3 10 -14 23 -24
33 -26 54 -93 39 -126 -14 -30 -74 -57 -114 -52 -15 3 -28 2 -28 -1 0 -3 18
-25 40 -49 22 -23 40 -47 40 -52 0 -6 7 -10 15 -10 25 0 65 -73 76 -141 15
-92 50 -200 73 -227 18 -20 19 -27 8 -67 -7 -25 -12 -54 -12 -64 0 -10 -11
-39 -25 -65 -15 -28 -25 -64 -25 -88 0 -23 -9 -60 -20 -82 -38 -80 -298 -360
-376 -406 -23 -14 -60 -38 -82 -53 -44 -31 -129 -61 -136 -48 -3 4 17 32 44
60 29 31 65 85 86 129 20 42 46 87 58 99 32 32 175 317 193 382 17 63 22 212
10 311 -4 36 -9 85 -12 110 -10 90 -76 273 -120 335 -12 17 -25 38 -28 47 -4
10 -21 27 -39 37 -49 29 -65 49 -72 86 -7 37 -38 65 -71 65 -20 0 -20 -1 1
-18 35 -28 74 -87 74 -111 0 -12 23 -72 52 -134 l51 -112 4 -155 c3 -146 -4
-217 -29 -300 -32 -104 -80 -191 -79 -145 0 6 -7 17 -15 26 -13 14 -14 49 -10
219 3 111 8 206 11 211 10 16 -13 153 -36 212 -15 38 -40 76 -78 114 -81 84
-144 119 -238 133 -43 7 -85 15 -93 18 -8 3 -35 7 -60 9 -25 1 -67 5 -95 7
-81 8 -93 7 -144 -9 -26 -9 -52 -15 -57 -14 -11 3 -60 -9 -89 -21 -11 -4 -38
-15 -60 -24 l-40 -15 55 -1 c112 -2 226 -44 450 -166 25 -13 82 -42 127 -64
45 -22 84 -44 87 -49 7 -11 -74 13 -112 33 -74 39 -208 88 -308 111 -51 12
-227 21 -298 15 -19 -1 -126 -77 -126 -89 0 -4 -8 -16 -18 -27 -47 -51 -109
-209 -131 -335 -10 -58 -25 -224 -22 -235 5 -14 -26 -24 -71 -24 -47 0 -47 0
-53 38 -3 20 -10 57 -16 82 -5 25 -10 57 -11 72 -1 15 -6 24 -10 22 -5 -3 -6
-10 -3 -15 4 -5 0 -9 -7 -9 -9 0 -9 -3 2 -10 10 -7 12 -12 4 -17 -6 -5 -16
-39 -22 -77 -6 -38 -17 -73 -24 -77 -7 -5 -82 -8 -165 -8 l-153 1 0 82 0 83
-50 -49 c-27 -26 -57 -64 -66 -83 -16 -34 -18 -35 -72 -35 l-55 0 20 23 c46
50 54 83 64 256 5 92 8 178 7 191 -2 19 2 26 20 28 12 2 22 7 22 11 0 15 -72
127 -103 160 -40 41 -275 235 -340 280 -43 29 -47 31 -33 10 16 -25 54 -56
118 -99 21 -14 38 -29 38 -33 0 -16 -136 15 -216 49 -76 33 -164 62 -164 54 0
-4 15 -17 33 -29 114 -73 144 -100 204 -186 82 -118 115 -188 145 -310 42
-165 49 -216 46 -310 -3 -84 -4 -90 -25 -93 -17 -3 -24 3 -28 25 -4 15 -24 89
-46 163 -47 157 -89 257 -100 239 -4 -7 1 -29 11 -48 11 -20 26 -65 35 -101
28 -113 63 -244 70 -262 6 -16 0 -18 -64 -18 l-71 0 0 91 0 92 -35 33 c-45 42
-95 78 -95 67 0 -5 12 -26 27 -48 26 -37 28 -46 25 -130 -2 -55 -8 -92 -15
-97 -7 -4 -33 -7 -59 -6 l-47 1 24 42 c24 40 25 46 18 163 l-6 121 -61 54
c-34 29 -73 57 -88 60 l-28 7 24 -45 c13 -24 33 -56 45 -71 29 -37 63 -133 63
-180 0 -50 -38 -142 -61 -148 -9 -2 -42 -5 -75 -5 -45 -1 -56 2 -49 12 6 6 13
23 16 36 4 18 3 21 -6 12 -6 -6 -15 -11 -19 -11 -13 0 -10 414 3 427 8 8 8 17
0 31 -6 11 -11 66 -11 122 l0 102 28 -7 27 -7 -27 29 c-27 28 -28 34 -28 128
l0 99 38 -35 c32 -31 106 -86 151 -114 8 -4 1 12 -16 36 -17 24 -37 58 -46 76
-13 25 -27 34 -67 44 -61 16 -63 29 -19 118 62 123 183 225 287 240 26 3 341
7 700 8 565 1 652 -1 652 -13z m169 11 c-3 -2 -30 -6 -60 -9 -30 -2 -59 -5
-64 -6 -20 -4 -35 0 -35 10 0 6 34 10 82 10 45 0 79 -2 77 -5z m1046 -100 c14
-31 25 -59 25 -63 -1 -8 -59 100 -60 111 -1 19 12 2 35 -48z m-5491 -167 c43
-45 90 -79 161 -117 64 -34 37 -32 -30 2 -45 22 -140 93 -169 126 -32 35 3 25
38 -11z m5927 -395 c10 -24 16 -43 13 -43 -8 0 -44 83 -43 100 1 13 1 13 6 0
3 -8 14 -34 24 -57z m-1138 -19 c34 -9 74 -22 89 -30 36 -19 256 -244 285
-292 30 -49 29 -61 -2 -32 -32 30 -32 22 5 -49 35 -67 62 -184 58 -250 -5 -70
-20 -55 -35 34 -16 96 -27 111 -31 44 -3 -64 -16 -89 -46 -89 l-24 0 19 37
c24 48 24 51 -7 106 -18 32 -24 58 -22 84 2 31 -2 43 -27 66 -46 43 -140 83
-240 102 -114 22 -195 20 -280 -6 -76 -23 -102 -21 -62 5 54 36 100 45 228 46
110 0 150 -4 258 -25 29 -5 61 -26 113 -73 l41 -37 -28 55 c-42 84 -68 114
-152 173 -90 63 -126 82 -199 107 l-53 19 -68 -27 c-45 -18 -86 -45 -126 -82
-67 -61 -93 -98 -152 -215 -50 -97 -65 -123 -87 -149 -10 -11 -18 -24 -18 -28
0 -5 -4 -6 -10 -3 -17 11 -11 56 22 157 37 112 60 145 157 222 72 58 121 85
215 122 73 28 99 29 179 8z m576 -254 c-5 -69 -14 -174 -19 -235 -5 -60 -9
-149 -9 -198 l-1 -87 -35 22 c-26 17 -34 28 -31 43 3 11 19 106 36 210 49 303
62 376 65 373 2 -2 -1 -60 -6 -128z m-2870 8 c0 -31 -1 -31 -10 -10 -5 13 -7
28 -3 33 10 16 14 9 13 -23z m2131 -24 c0 -3 -26 -17 -57 -31 -32 -14 -93 -49
-136 -77 -88 -57 -119 -99 -160 -212 l-25 -69 -51 -3 -51 -3 0 38 c0 50 19
115 31 108 5 -4 9 -15 9 -26 0 -30 11 -23 70 45 30 34 96 90 145 124 110 75
225 129 225 106z m176 -25 c18 -14 235 -235 244 -247 9 -13 -95 83 -179 165
-112 109 -154 117 -275 53 -62 -34 -72 -33 -24 1 73 52 188 66 234 28z m-352
-154 c-9 -14 -18 -25 -21 -25 -5 0 5 18 20 38 17 22 18 13 1 -13z m507 -140
c34 -55 22 -75 -47 -75 -24 0 -34 5 -34 15 0 19 -9 19 -34 0 -20 -15 -76 -21
-76 -7 0 4 22 20 48 36 l48 30 -11 45 c-7 25 -21 51 -32 58 -31 21 -79 32 -94
22 -11 -7 -9 -9 6 -9 11 0 31 -7 45 -15 23 -14 18 -15 -67 -14 -121 2 -120 3
-138 -119 -8 -48 -25 -47 -25 2 0 43 35 123 60 136 10 5 30 10 44 10 14 0 27
4 30 9 9 13 63 19 107 11 30 -6 39 -4 39 7 0 15 102 -95 131 -142z m18 31 c23
-33 41 -71 41 -85 0 -21 -6 -16 -28 29 -15 30 -39 73 -52 95 -32 54 -11 33 39
-39z m-590 -17 c-15 -76 -23 -89 -56 -89 -21 0 -23 3 -17 23 14 47 72 140 82
132 2 -2 -2 -31 -9 -66z m261 -14 c0 -9 7 -29 15 -45 9 -17 11 -30 5 -30 -5 0
-18 17 -28 37 l-19 36 -7 -36 c-7 -38 -26 -51 -26 -18 0 20 36 71 51 71 5 0 9
-7 9 -15z m-310 -171 c0 -17 -44 -64 -58 -63 -9 0 -30 16 -45 35 l-29 34 66 0
c36 0 66 -3 66 -6z m1126 -181 c-10 -10 -19 5 -10 18 6 11 8 11 12 0 2 -7 1
-15 -2 -18z m-3661 -133 c3 -5 1 -10 -4 -10 -6 0 -11 5 -11 10 0 6 2 10 4 10
3 0 8 -4 11 -10z m2205 -244 c0 -3 -4 -8 -10 -11 -5 -3 -10 -1 -10 4 0 6 5 11
10 11 6 0 10 -2 10 -4z m392 -21 c-2 -14 -10 -25 -17 -25 -10 0 -11 5 -2 25
15 32 26 32 19 0z m-1594 -12 c2 -9 -7 -13 -28 -13 -28 0 -31 2 -20 15 15 18
41 16 48 -2z m2341 -131 c-104 -115 -157 -179 -173 -209 -20 -39 -90 -100
-155 -133 -26 -14 -67 -35 -90 -48 l-42 -23 58 -38 c32 -21 65 -46 73 -56 16
-19 65 -103 102 -175 13 -25 25 -47 28 -50 7 -7 30 -49 30 -54 0 -3 -9 -4 -20
-3 -11 1 -20 5 -20 9 0 4 -9 8 -20 8 -11 0 -20 6 -20 14 0 8 -9 18 -20 21 -11
3 -20 10 -20 14 0 4 -23 31 -51 61 -61 66 -165 194 -171 210 -3 11 -66 4 -178
-19 l-35 -7 93 -47 c107 -55 217 -128 244 -162 16 -21 18 -34 12 -84 -5 -51
-3 -65 17 -100 12 -23 26 -41 31 -41 4 0 8 -7 8 -16 0 -8 4 -13 9 -10 5 3 12
-1 15 -10 3 -8 2 -12 -4 -9 -6 3 -10 1 -10 -4 0 -6 4 -11 9 -11 5 0 13 -10 17
-22 4 -15 1 -25 -12 -35 -17 -13 -17 -13 0 -13 16 0 18 -6 13 -45 -4 -25 -2
-47 3 -50 16 -10 12 -67 -15 -203 -42 -213 -60 -258 -173 -440 l-45 -73 -158
2 c-87 0 -168 3 -179 6 -33 9 -13 21 29 18 28 -2 41 2 45 12 4 8 13 13 21 9 8
-3 15 -1 15 4 0 6 7 10 15 10 25 0 104 63 111 88 3 12 10 22 16 22 5 0 6 5 3
10 -3 6 -3 10 2 10 4 0 22 23 38 51 17 27 49 75 73 106 47 62 54 78 18 42 -13
-13 -42 -34 -64 -47 l-40 -22 -4 25 c-3 14 -1 25 5 25 6 0 7 3 4 7 -4 3 -2 12
4 19 6 7 13 42 15 76 l5 63 -20 -72 c-11 -40 -25 -81 -31 -93 -7 -13 -7 -20 0
-20 5 0 10 -5 10 -11 0 -6 -5 -9 -12 -7 -7 3 -23 -17 -37 -44 -32 -63 -194
-229 -251 -259 -43 -22 -55 -24 -313 -27 l-269 -3 -69 41 c-89 53 -217 206
-176 212 36 4 43 4 52 -3 6 -4 16 -5 22 -1 8 5 -4 27 -34 67 -98 131 -183 307
-183 383 l-1 37 -16 -29 c-8 -16 -17 -50 -19 -75 -5 -50 -8 -68 -17 -91 -8
-21 -18 -80 -19 -112 0 -16 -4 -28 -9 -28 -5 0 -9 -5 -9 -11 0 -5 5 -7 11 -3
8 5 9 2 2 -11 -6 -10 -8 -26 -6 -36 3 -11 -2 -31 -12 -45 -12 -19 -14 -29 -5
-39 6 -7 10 -19 9 -27 -9 -48 53 -185 91 -201 l25 -10 -30 -7 c-16 -4 -111 -8
-210 -9 l-180 -1 -27 48 c-50 89 -62 243 -25 332 l23 55 -66 -65 c-79 -78
-144 -130 -162 -130 -18 0 -48 84 -48 135 0 37 5 44 49 77 63 47 114 110 148
184 27 56 28 66 27 194 -1 107 -6 146 -21 190 l-20 55 -7 -75 c-15 -156 -25
-194 -78 -300 -29 -58 -54 -109 -56 -114 -3 -5 11 2 29 15 19 13 36 27 37 32
2 4 8 5 12 2 10 -6 -62 -106 -99 -139 l-21 -19 0 77 c0 74 2 82 50 169 27 51
57 124 66 162 21 87 21 234 1 300 -26 88 -64 181 -91 224 -26 40 -26 41 -26
256 l0 215 106 0 107 0 73 -77 c41 -43 74 -75 74 -71 0 3 -9 25 -20 49 -25 55
-27 104 -4 95 9 -3 26 -6 39 -6 17 0 26 -8 33 -29 17 -49 124 -102 195 -96 15
1 34 11 42 22 8 11 31 28 52 37 21 9 48 23 60 32 23 16 23 16 17 -14 l-6 -30
41 11 c30 8 43 18 48 34 3 13 13 27 22 32 9 4 149 7 313 6 309 -1 331 -4 323
-44 -2 -10 0 -24 5 -31 11 -18 96 -23 124 -8 11 7 25 11 30 10 4 -2 14 2 22 8
7 7 32 14 56 16 47 5 60 8 133 24 105 23 207 30 410 29 116 0 226 4 245 9 19
6 39 10 44 11 5 1 -11 -21 -35 -47z m-2518 -489 c12 -32 25 -96 30 -143 4 -47
14 -116 23 -155 17 -74 22 -200 7 -191 -7 5 -13 28 -42 180 -5 27 -18 69 -29
94 -16 36 -20 67 -20 158 0 63 2 114 4 114 3 0 15 -26 27 -57z m-773 -5 c-2
-6 -10 -14 -16 -16 -7 -2 -10 2 -6 12 7 18 28 22 22 4z m-1278 -82 c0 -3 -4
-8 -10 -11 -5 -3 -10 -1 -10 4 0 6 5 11 10 11 6 0 10 -2 10 -4z m-260 -136 c0
-5 -2 -10 -4 -10 -3 0 -8 5 -11 10 -3 6 -1 10 4 10 6 0 11 -4 11 -10z m5245
-186 c-27 -22 -96 -54 -116 -54 -9 0 -30 -7 -47 -16 -19 -9 -68 -17 -131 -19
-108 -5 -97 1 -226 -99 -40 -30 -73 -125 -58 -165 13 -35 1 -68 -37 -101 -17
-15 -30 -37 -32 -55 -3 -28 -1 -30 25 -27 21 2 27 0 21 -10 -5 -10 -4 -10 6
-1 18 17 58 -21 53 -51 -3 -13 2 -30 11 -39 10 -9 16 -33 16 -60 0 -29 5 -47
14 -50 10 -4 14 -21 13 -60 -1 -30 1 -53 5 -51 12 8 19 -15 10 -33 -12 -22 -4
-45 11 -36 7 4 6 -1 -2 -10 -20 -25 -45 -5 -93 73 -29 48 -38 72 -34 93 3 17
1 27 -6 27 -6 0 -9 3 -5 6 3 3 0 25 -8 49 -12 41 -12 43 7 40 12 -3 18 1 15 8
-2 6 -14 12 -26 12 -21 0 -40 23 -57 70 -13 37 -21 -24 -12 -95 5 -36 5 -78 2
-95 -9 -40 -87 -205 -97 -205 -5 0 -6 3 -4 8 2 4 20 41 39 82 33 70 35 80 29
143 -4 37 -5 70 -2 73 2 2 6 21 8 42 5 52 20 95 47 135 13 19 26 47 29 63 20
101 48 179 74 206 48 51 168 137 229 164 64 29 121 33 211 16 48 -8 56 -7 85
14 37 26 64 32 33 8z m-2938 -131 c5 -82 4 -93 -11 -93 -14 0 -16 15 -15 118
0 141 18 124 26 -25z m3222 47 c12 -6 21 -12 21 -14 0 -2 -33 -3 -72 -3 -82 0
-129 -9 -140 -26 -4 -7 -8 -8 -8 -3 0 5 -10 0 -22 -11 -13 -11 -49 -33 -80
-49 -32 -15 -58 -32 -58 -36 0 -4 -7 -8 -15 -8 -8 0 -15 -4 -15 -9 0 -11 -116
-101 -130 -101 -31 0 65 113 130 153 19 12 55 37 80 56 54 41 101 62 155 70
46 7 124 -2 154 -19z m91 -15 c-7 -8 -17 -15 -23 -15 -6 0 -2 7 9 15 25 19 30
19 14 0z m-6553 -52 c-2 -31 -6 -38 -22 -38 -31 -1 -35 14 -13 51 24 41 37 36
35 -13z m-23 -61 c3 -5 -1 -9 -9 -9 -8 0 -12 4 -9 9 3 4 7 8 9 8 2 0 6 -4 9
-8z m6295 -20 c-24 -16 -71 -59 -103 -96 -32 -36 -61 -64 -64 -62 -14 15 102
137 157 166 54 29 61 24 10 -8z m-80 1 c-17 -28 -89 -78 -107 -75 -13 2 -14 1
-4 -6 9 -6 -4 -24 -49 -66 -53 -50 -62 -64 -66 -99 -2 -22 -9 -47 -16 -56 -10
-12 -9 -13 3 -6 12 7 13 6 3 -6 -13 -16 -12 -31 5 -69 6 -14 16 -50 21 -82 6
-31 37 -113 70 -182 33 -69 58 -126 56 -126 -14 0 -99 153 -123 221 -17 46
-39 100 -49 119 -20 39 -22 131 -3 200 17 64 119 174 199 215 36 19 67 34 69
35 1 0 -3 -8 -9 -17z m-6183 -63 c8 0 14 -5 14 -11 0 -5 -6 -7 -12 -3 -10 6
-10 4 -2 -7 14 -20 18 -79 4 -79 -6 0 -13 7 -16 15 -4 11 -11 8 -29 -13 -16
-19 -20 -29 -12 -34 7 -4 8 -8 2 -8 -25 0 -35 18 -32 58 5 50 32 96 54 88 8
-3 21 -6 29 -6z m-92 -146 c3 -8 2 -12 -4 -9 -6 3 -10 10 -10 16 0 14 7 11 14
-7z m1344 -153 c31 -16 84 -34 117 -41 82 -16 147 -53 227 -129 66 -62 80 -81
57 -81 -9 0 -110 68 -248 166 -37 26 -206 60 -291 57 -111 -4 -187 -34 -262
-103 -36 -33 -69 -60 -72 -60 -17 0 -2 35 31 71 40 44 89 72 142 83 18 3 50
16 69 29 87 54 135 56 230 8z m98 -112 c100 -53 138 -83 194 -153 55 -68 67
-96 42 -96 -11 0 -27 16 -40 38 -11 21 -31 47 -42 57 -13 12 -8 -1 14 -34 20
-30 34 -56 31 -59 -3 -3 -6 -3 -8 -1 -13 16 -62 106 -62 113 0 5 -29 32 -63
59 l-64 50 -109 9 c-68 5 -133 5 -172 -2 -75 -12 -200 -72 -230 -112 -12 -16
-34 -42 -49 -59 -15 -16 -31 -41 -34 -55 -6 -22 5 -132 20 -209 2 -12 -2 -32
-9 -45 -13 -25 -13 -25 -21 15 -5 22 -8 96 -8 165 1 111 3 129 23 162 34 56
104 102 211 138 89 30 101 32 195 27 55 -3 109 -9 120 -12 14 -5 11 0 -10 19
-44 37 -19 32 71 -15z m4530 -11 c2 -24 5 -74 8 -113 2 -38 7 -83 11 -98 7
-25 5 -28 -11 -25 -25 4 -39 108 -29 214 7 82 16 90 21 22z m-5120 -36 c-8
-15 -22 -34 -30 -41 -9 -8 -16 -19 -16 -26 0 -8 -3 -15 -7 -17 -13 -5 -63
-105 -56 -111 3 -4 0 -13 -7 -22 -7 -9 -10 -18 -7 -21 3 -3 -1 -27 -9 -52 -16
-54 -19 -191 -4 -241 5 -18 24 -49 42 -68 18 -19 41 -44 50 -54 12 -12 14 -20
6 -25 -7 -5 -5 -12 7 -21 14 -9 15 -13 4 -13 -18 0 29 -25 64 -34 15 -3 27
-13 27 -21 0 -8 5 -15 11 -15 5 0 7 6 3 13 -3 6 7 -3 24 -22 16 -18 32 -29 35
-24 9 14 38 10 82 -11 21 -10 49 -19 62 -19 14 0 23 -5 23 -16 0 -13 2 -13 9
-2 6 9 11 10 15 2 4 -6 13 -8 19 -4 7 4 6 0 -2 -10 -7 -9 -17 -15 -21 -12 -4
3 -43 7 -86 10 -44 3 -81 10 -82 15 -2 6 -8 8 -13 4 -9 -5 -67 26 -92 50 -6 6
-29 22 -49 34 -25 15 -41 35 -49 60 -13 39 -38 80 -77 123 -30 34 -43 125 -39
274 3 145 35 233 116 315 54 55 75 57 47 2z m-707 -132 c-5 -17 -7 -2 -7 45 0
64 1 66 8 25 4 -25 4 -56 -1 -70z m1324 100 c7 0 23 -9 37 -20 l25 -20 -47 16
c-27 9 -51 21 -55 27 -4 7 0 8 11 4 10 -4 23 -7 29 -7z m-80 -21 c12 -7 28
-19 34 -28 60 -78 81 -111 72 -111 -15 0 -59 47 -59 63 0 7 -13 26 -30 42 -26
25 -34 27 -75 22 -41 -6 -55 -16 -118 -79 -40 -40 -63 -59 -53 -43 30 46 124
133 149 138 41 8 58 7 80 -4z m1932 -59 c15 -17 16 -20 3 -20 -9 0 -18 9 -21
20 -3 11 -4 20 -3 20 2 0 11 -9 21 -20z m-1605 -36 c23 -52 23 -54 12 -54 -5
0 -15 23 -24 50 -20 63 -14 65 12 4z m-1541 -119 c-1 -21 -27 61 -28 85 0 14
6 4 14 -25 8 -27 14 -54 14 -60z m1236 1 c16 -25 17 -32 4 -84 -15 -65 -34
-92 -64 -92 -19 0 -105 35 -105 43 0 2 28 -2 62 -9 35 -7 67 -9 71 -5 5 5 -1
34 -11 66 -15 44 -18 65 -10 89 5 17 12 40 16 51 5 18 6 17 12 -6 4 -14 15
-38 25 -53z m-131 38 c3 -8 2 -12 -4 -9 -6 3 -10 10 -10 16 0 14 7 11 14 -7z
m980 -10 c4 -9 4 -19 2 -21 -8 -8 -26 8 -26 23 0 19 16 18 24 -2z m-1243 -41
c0 -64 11 -121 45 -232 5 -16 4 -22 -3 -18 -30 19 -79 297 -52 297 5 0 9 -21
10 -47z m446 -5 c-3 -7 -5 -2 -5 12 0 14 2 19 5 13 2 -7 2 -19 0 -25z m75 -60
c-9 -20 -11 -18 -11 22 0 40 2 42 11 23 8 -17 8 -29 0 -45z m98 42 c0 -5 -4
-10 -9 -10 -6 0 -13 5 -16 10 -3 6 1 10 9 10 9 0 16 -4 16 -10z m-1435 -10 c3
-5 1 -10 -4 -10 -6 0 -11 5 -11 10 0 6 2 10 4 10 3 0 8 -4 11 -10z m3885 0 c0
-5 -2 -10 -4 -10 -3 0 -8 5 -11 10 -3 6 -1 10 4 10 6 0 11 -4 11 -10z m-3830
-95 c14 -19 14 -19 -2 -6 -10 7 -18 18 -18 24 0 6 1 8 3 6 1 -2 9 -13 17 -24z
m5766 0 c-3 -8 0 -15 7 -16 7 0 3 -4 -8 -9 -11 -5 -14 -9 -7 -9 7 -1 11 -5 7
-10 -3 -5 2 -16 10 -24 8 -9 15 -26 15 -39 -1 -19 -4 -17 -19 14 -36 71 -41
96 -23 101 9 3 19 5 21 6 2 0 1 -6 -3 -14z m-4351 -35 c11 -18 -45 -117 -96
-169 -64 -65 -160 -128 -224 -146 -43 -13 -62 -13 -143 0 -131 19 -170 49
-228 172 -54 115 -44 152 16 58 19 -30 38 -55 41 -55 4 0 12 -14 19 -31 11
-26 90 -82 90 -63 0 4 6 2 13 -4 6 -6 40 -15 75 -22 l63 -11 75 40 c72 39 186
120 199 141 4 6 -15 -3 -42 -18 -105 -63 -120 -70 -172 -82 -29 -7 -75 -10
-102 -7 -47 6 -149 53 -149 70 0 4 10 2 23 -5 30 -16 157 -13 236 6 104 24
251 87 268 113 16 25 28 29 38 13z m4191 -77 c70 -73 99 -125 109 -188 4 -32
3 -35 -4 -17 -13 28 -21 29 -13 0 3 -13 1 -19 -5 -15 -6 4 -13 29 -17 55 -7
53 -26 80 -88 125 -48 36 -54 34 -28 -8 21 -34 43 -95 34 -95 -19 0 -94 45
-94 57 0 8 -9 17 -20 20 -11 3 -20 9 -20 14 0 5 -3 8 -7 7 -5 -1 -20 4 -35 10
-16 7 -40 17 -54 22 -15 6 -25 13 -22 15 2 3 37 15 76 28 51 17 75 20 83 13 9
-8 10 -8 5 1 -6 10 6 20 28 22 4 1 37 -29 72 -66z m-4148 44 c21 -25 -68 -170
-121 -199 -32 -17 -28 -4 18 58 25 32 52 80 61 107 16 49 24 56 42 34z m-828
-51 c0 -12 -5 -7 -19 24 -11 24 -11 24 3 6 9 -11 16 -24 16 -30z m870 -1 c0
-114 -66 -206 -178 -249 -54 -21 -85 -26 -155 -26 -48 0 -87 4 -87 8 0 5 6 9
13 9 36 1 208 49 247 68 79 40 140 123 140 190 0 14 5 25 10 25 6 0 10 -11 10
-25z m3765 -42 c11 -17 31 -33 45 -36 116 -26 153 -35 140 -36 -31 -2 -90 -22
-86 -29 2 -4 -15 -5 -39 -4 -37 3 -52 12 -94 53 -50 49 -57 73 -23 82 27 7 36
2 57 -30z m-109 2 c-13 -13 -13 -20 -3 -35 6 -11 17 -20 24 -20 7 0 13 -4 13
-10 0 -6 -9 -6 -25 0 -14 5 -25 7 -25 3 0 -3 20 -29 44 -57 29 -34 60 -57 92
-70 61 -24 125 -66 119 -77 -3 -4 0 -11 6 -15 8 -4 9 -3 5 4 -10 17 3 15 28
-6 16 -12 20 -20 12 -28 -8 -8 -33 0 -88 28 -42 21 -81 38 -85 38 -4 0 -20 6
-35 14 -15 8 -48 17 -74 21 -56 7 -84 21 -84 40 0 7 -6 15 -12 18 -10 3 -10 7
-2 18 7 8 13 31 16 51 l4 37 -51 7 -50 7 85 22 c106 28 105 28 86 10z m674
-40 c14 -19 14 -19 -2 -6 -10 7 -18 18 -18 24 0 6 1 8 3 6 1 -2 9 -13 17 -24z
m-5523 -33 c6 -85 9 -97 26 -100 9 -2 17 -8 17 -13 0 -5 7 -9 15 -9 8 0 16 -4
16 -10 1 -5 2 -14 3 -19 0 -5 4 -13 8 -17 4 -4 3 -13 -4 -21 -8 -11 -7 -12 6
-7 18 7 20 16 7 30 -6 5 -4 13 3 20 10 9 13 2 12 -32 0 -23 -2 -43 -5 -42 -19
2 -22 -4 -11 -17 7 -8 9 -22 6 -31 -5 -14 -9 -13 -26 9 -27 34 -86 176 -85
207 0 14 -4 28 -9 31 -5 4 -10 18 -11 32 -2 19 1 24 14 20 9 -2 17 -16 18 -31z
m1470 -36 l81 -48 -16 -29 c-10 -16 -24 -28 -32 -28 -8 1 -28 -1 -45 -5 -84
-21 -93 -27 -108 -64 -8 -20 -29 -56 -46 -79 -35 -48 -136 -127 -151 -118 -6
4 -9 3 -8 -2 6 -23 -29 -54 -105 -91 -105 -52 -214 -82 -293 -82 -33 0 -83 -7
-110 -15 -55 -17 -109 -18 -139 -4 -15 7 -12 8 12 3 47 -8 112 45 72 58 -16 5
-1 48 17 48 8 0 14 9 14 20 0 11 4 20 10 20 5 0 9 5 7 11 -2 10 54 20 108 18
11 0 31 -1 45 -1 14 -1 45 0 70 2 40 2 38 4 -29 12 -73 9 -108 23 -211 82 -79
46 -81 45 120 52 191 6 285 24 385 73 95 47 137 86 189 175 37 63 40 66 60 53
12 -8 58 -35 103 -61z m4108 -5 c3 -6 4 -11 1 -11 -10 0 -35 57 -28 64 3 4 10
-4 13 -18 4 -13 10 -29 14 -35z m-859 24 c-10 -8 -22 -12 -27 -10 -4 3 -10 -1
-12 -7 -4 -10 -6 -10 -6 0 -1 7 9 17 22 22 33 13 44 11 23 -5z m439 -5 c4 -6
-5 -10 -20 -10 -15 0 -24 4 -20 10 3 6 12 10 20 10 8 0 17 -4 20 -10z m30 -40
c3 -5 2 -10 -4 -10 -5 0 -13 5 -16 10 -3 6 -2 10 4 10 5 0 13 -4 16 -10z m-48
-32 c35 -17 74 -44 86 -59 12 -16 33 -43 46 -60 l25 -31 -25 7 c-42 13 -111
66 -105 81 3 7 2 13 -2 12 -12 -3 -52 13 -52 21 0 3 -13 15 -30 24 -30 18 -40
37 -19 37 6 0 40 -14 76 -32z m-902 -78 c-4 -6 -46 -31 -95 -55 -84 -42 -139
-92 -122 -110 4 -5 1 -4 -7 0 -11 6 -13 4 -8 -7 3 -9 -3 -24 -14 -34 -10 -9
-19 -20 -19 -24 0 -4 -11 -32 -25 -61 l-26 -54 7 40 c3 22 27 80 53 130 l48
90 92 48 c89 45 129 58 116 37z m753 -67 c64 -32 109 -59 100 -61 -17 -3 -159
62 -213 98 -56 37 -5 20 113 -37z m-113 -8 c28 -14 39 -22 25 -18 -39 10 -107
42 -90 42 8 0 38 -10 65 -24z m-212 8 c-13 -2 -33 -2 -45 0 -13 2 -3 4 22 4
25 0 35 -2 23 -4z m-108 -14 c-22 -4 -87 -24 -144 -43 -118 -41 -114 -40 -106
-26 21 33 163 78 250 78 l40 0 -40 -9z m612 5 c-3 -3 -12 -4 -19 -1 -8 3 -5 6
6 6 11 1 17 -2 13 -5z m-537 -24 c-8 -5 -23 -10 -32 -10 -10 0 -52 -11 -94
-24 -42 -14 -72 -20 -67 -15 11 11 159 57 188 58 16 1 17 -1 5 -9z m270 -10
c8 -5 11 -10 5 -10 -5 0 -17 5 -25 10 -8 5 -10 10 -5 10 6 0 17 -5 25 -10z
m60 0 c8 -5 11 -10 5 -10 -5 0 -17 5 -25 10 -8 5 -10 10 -5 10 6 0 17 -5 25
-10z m-4820 -60 c-9 -6 -20 0 -33 17 -16 20 -17 27 -7 33 9 6 20 0 33 -17 16
-20 17 -27 7 -33z m1823 52 c13 -6 4 -14 -42 -40 -35 -19 -62 -28 -66 -23 -3
6 8 17 25 26 17 9 28 20 25 25 -10 16 27 24 58 12z m1001 -29 c22 -44 29 -89
32 -208 2 -119 -10 -216 -33 -253 -14 -23 -15 -23 -34 -6 -10 9 -19 22 -19 28
0 6 -7 25 -16 41 -9 17 -25 57 -36 90 -24 70 -36 100 -89 213 -21 45 -39 86
-39 90 0 4 39 12 87 18 134 17 131 17 147 -13z m1233 -70 c-69 -91 -106 -172
-133 -293 -11 -49 -12 -51 -13 -19 -2 79 64 234 140 326 57 71 62 60 6 -14z
m-1807 23 c61 -30 173 -95 185 -108 17 -17 -30 0 -165 62 -69 31 -136 62 -150
68 -21 9 -16 10 30 5 30 -3 75 -15 100 -27z m-2225 4 c3 -5 2 -17 -3 -27 -9
-15 -11 -14 -20 4 -15 27 7 49 23 23z m4353 -68 c-26 -26 -61 -63 -77 -82 -40
-46 -42 -16 -2 34 34 42 98 96 115 96 6 0 -10 -22 -36 -48z m-3932 -38 c-30
-21 -45 -16 -16 6 14 10 27 16 30 13 3 -2 -4 -11 -14 -19z m1549 -4 c13 -5 14
-9 5 -9 -8 0 -24 4 -35 9 -13 5 -14 9 -5 9 8 0 24 -4 35 -9z m83 -54 c42 -40
54 -45 107 -50 32 -3 63 -10 67 -14 12 -12 -120 4 -134 16 -32 26 -98 92 -93
92 3 0 27 -20 53 -44z m-1917 7 c13 -16 12 -17 -3 -4 -10 7 -18 15 -18 17 0 8
8 3 21 -13z m3616 -25 c-3 -8 -6 -5 -6 6 -1 11 2 17 5 13 3 -3 4 -12 1 -19z
m-3501 -17 c-4 -5 8 -12 25 -16 17 -4 28 -9 26 -12 -3 -2 -25 1 -48 8 -37 10
-41 13 -24 20 27 10 27 10 21 0z m3024 -96 c0 -8 -4 -15 -10 -15 -5 0 -10 7
-10 15 0 8 5 15 10 15 6 0 10 -7 10 -15z m-1085 -112 c-3 -21 -14 -49 -24 -62
-16 -21 -16 -16 3 42 22 72 32 80 21 20z m1692 -5 c-3 -7 -5 -2 -5 12 0 14 2
19 5 13 2 -7 2 -19 0 -25z m-2732 -36 c-3 -3 -11 0 -18 7 -9 10 -8 11 6 5 10
-3 15 -9 12 -12z m-222 -40 c-2 -7 2 -11 8 -10 6 2 14 -3 16 -9 3 -7 -1 -13
-8 -13 -7 0 -21 -8 -32 -17 -19 -17 -20 -17 -15 4 3 12 3 22 -1 21 -28 -3 -33
3 -16 22 20 22 52 23 48 2z"/>
<path d="M4870 6438 c0 -9 7 -22 17 -29 15 -13 15 -12 3 11 -17 34 -20 36 -20
18z"/>
<path d="M4898 6289 c-3 -8 -1 -24 3 -36 5 -13 4 -25 -2 -28 -5 -4 -6 -11 -3
-17 4 -6 1 -14 -7 -18 -7 -5 -14 -16 -15 -25 -4 -25 -21 -41 -77 -74 -29 -17
-72 -49 -97 -71 l-45 -42 35 6 c46 8 131 67 186 130 41 47 44 55 44 106 0 57
-13 96 -22 69z"/>
<path d="M3178 5986 c-35 -19 -54 -43 -45 -53 13 -13 97 46 97 69 0 12 -10 9
-52 -16z"/>
<path d="M2986 5972 l-39 -27 63 -3 c35 -2 68 2 73 7 8 8 4 11 -11 11 -15 0
-22 6 -22 20 0 26 -16 24 -64 -8z"/>
<path d="M3648 5934 c-16 -8 -28 -19 -28 -25 0 -11 21 -1 55 25 25 20 8 20
-27 0z"/>
<path d="M2328 5913 c7 -3 16 -2 19 1 4 3 -2 6 -13 5 -11 0 -14 -3 -6 -6z"/>
<path d="M3745 5900 c3 -5 10 -10 16 -10 5 0 9 5 9 10 0 6 -7 10 -16 10 -8 0
-12 -4 -9 -10z"/>
<path d="M4080 5840 c0 -7 6 -10 13 -7 14 5 88 -6 120 -18 12 -5 17 -2 17 9 0
10 -9 16 -22 16 -13 0 -47 3 -75 6 -39 5 -53 3 -53 -6z"/>
<path d="M4720 5728 c0 -18 -19 -28 -58 -29 l-27 -1 25 -8 c45 -14 58 -11 64
16 4 15 5 29 1 32 -3 3 -5 -2 -5 -10z"/>
<path d="M1090 5635 c-32 -18 -5 -19 35 0 23 10 25 13 10 14 -11 0 -31 -6 -45
-14z"/>
<path d="M5070 5610 c0 -5 5 -10 11 -10 5 0 7 5 4 10 -3 6 -8 10 -11 10 -2 0
-4 -4 -4 -10z"/>
<path d="M995 5534 c-23 -36 -16 -37 25 -3 31 25 32 28 14 29 -12 0 -29 -11
-39 -26z"/>
<path d="M1460 5550 c0 -5 7 -10 15 -10 8 0 15 5 15 10 0 6 -7 10 -15 10 -8 0
-15 -4 -15 -10z"/>
<path d="M1540 5545 c-7 -9 -19 -14 -27 -11 -14 6 -18 -9 -5 -18 10 -6 59 31
51 39 -3 3 -12 -2 -19 -10z"/>
<path d="M3734 5531 c3 -5 16 -11 28 -14 22 -6 22 -5 4 8 -22 17 -40 20 -32 6z"/>
<path d="M3237 5194 c-16 -9 -27 -18 -24 -20 3 -3 22 4 43 15 21 12 32 21 24
21 -8 -1 -28 -8 -43 -16z"/>
<path d="M2570 4643 c0 -26 23 -93 32 -93 4 0 8 22 8 49 0 40 -3 50 -20 54
-14 3 -20 0 -20 -10z"/>
<path d="M2570 4250 c0 -5 7 -28 16 -50 15 -38 15 -41 -4 -58 -11 -9 -28 -30
-38 -47 l-18 -30 21 18 c12 10 29 17 40 15 16 -3 18 5 21 65 2 42 -2 74 -9 83
-13 16 -29 18 -29 4z"/>
<path d="M5432 3910 c-19 -10 -29 -21 -22 -25 6 -3 24 5 41 19 36 30 28 33
-19 6z"/>
<path d="M4211 3893 c0 -4 4 -17 9 -28 8 -19 9 -19 9 2 1 12 -3 25 -9 28 -5 3
-10 3 -9 -2z"/>
<path d="M4720 3893 c-57 -21 -41 -43 30 -42 l45 1 -33 11 c-26 10 -30 15 -20
25 12 12 4 14 -22 5z"/>
<path d="M5473 3888 c-21 -28 -24 -38 -10 -38 8 0 17 10 20 22 7 27 3 33 -10
16z"/>
<path d="M5510 3870 c-20 -13 -1 -30 23 -21 16 6 17 9 5 18 -9 8 -19 9 -28 3z"/>
<path d="M6004 3555 c-10 -8 -14 -15 -8 -15 5 0 19 7 30 15 10 8 14 15 8 15
-5 0 -19 -7 -30 -15z"/>
<path d="M2601 3485 c-1 -11 -4 -31 -7 -45 -5 -22 -4 -23 6 -7 6 10 9 30 7 45
-3 18 -5 20 -6 7z"/>
<path d="M5920 3464 c-17 -9 -20 -14 -9 -14 9 0 22 7 29 15 15 18 13 18 -20
-1z"/>
<path d="M5172 3419 c2 -6 8 -10 13 -10 5 0 11 4 13 10 2 6 -4 11 -13 11 -9 0
-15 -5 -13 -11z"/>
<path d="M5535 3420 c3 -5 10 -10 16 -10 5 0 9 5 9 10 0 6 -7 10 -16 10 -8 0
-12 -4 -9 -10z"/>
<path d="M3930 3405 c0 -15 26 -20 54 -9 28 11 17 24 -19 24 -24 0 -35 -5 -35
-15z"/>
<path d="M5930 3416 c0 -2 7 -7 16 -10 8 -3 12 -2 9 4 -6 10 -25 14 -25 6z"/>
<path d="M3200 3269 c0 -5 5 -7 10 -4 6 3 10 8 10 11 0 2 -4 4 -10 4 -5 0 -10
-5 -10 -11z"/>
<path d="M3185 2541 c-3 -5 -1 -12 5 -16 5 -3 10 1 10 9 0 18 -6 21 -15 7z"/>
<path d="M2585 1950 c-3 -5 -1 -10 4 -10 6 0 11 5 11 10 0 6 -2 10 -4 10 -3 0
-8 -4 -11 -10z"/>
<path d="M3647 1223 c-4 -3 -7 -15 -7 -25 0 -13 8 -18 30 -18 l31 0 -18 25
c-19 26 -26 29 -36 18z"/>
<path d="M3723 1201 c-7 -10 -9 -21 -6 -24 8 -9 73 25 67 35 -10 15 -49 8 -61
-11z"/>
<path d="M3979 1205 c-21 -11 -32 -12 -58 -2 -28 10 -34 9 -53 -11 l-22 -22
82 0 c81 0 82 0 82 25 0 14 -1 25 -2 25 -2 -1 -15 -7 -29 -15z"/>
<path d="M4644 1195 c11 -8 29 -15 40 -15 26 0 16 9 -25 20 -31 9 -32 8 -15
-5z"/>
<path d="M5205 1140 c3 -5 11 -10 16 -10 6 0 7 5 4 10 -3 6 -11 10 -16 10 -6
0 -7 -4 -4 -10z"/>
<path d="M1926 1128 c6 -15 83 -53 90 -45 5 5 -76 57 -89 57 -4 0 -4 -6 -1
-12z"/>
<path d="M4413 978 c-34 -7 -43 -14 -43 -30 0 -17 3 -18 15 -8 8 7 28 10 45 8
16 -3 30 -1 30 3 0 4 3 14 6 23 7 18 6 18 -53 4z"/>
<path d="M5500 5541 c0 -5 11 -11 25 -13 28 -6 34 6 9 16 -22 8 -34 7 -34 -3z"/>
<path d="M3955 5320 c3 -5 11 -10 16 -10 6 0 7 5 4 10 -3 6 -11 10 -16 10 -6
0 -7 -4 -4 -10z"/>
<path d="M5060 4969 c-13 -6 -31 -16 -40 -24 -8 -7 -43 -28 -78 -45 -41 -20
-85 -54 -125 -96 -34 -35 -67 -64 -74 -64 -7 0 -12 -3 -12 -7 3 -20 -2 -34
-10 -28 -5 3 -12 -4 -16 -15 -3 -11 -11 -20 -16 -20 -6 0 -7 -5 -4 -10 3 -6
-1 -13 -9 -16 -9 -3 -16 -10 -16 -16 0 -5 -11 -20 -25 -34 -14 -14 -25 -34
-25 -44 0 -11 -4 -20 -9 -20 -4 0 -16 -20 -25 -45 -10 -25 -21 -43 -26 -40
-10 6 -24 -51 -15 -65 3 -5 2 -10 -3 -10 -9 0 -20 -40 -24 -80 0 -8 -5 -21
-10 -27 -6 -7 -8 -19 -5 -27 3 -8 2 -16 -2 -18 -5 -2 -12 -23 -16 -48 l-6 -45
20 30 c12 17 26 46 32 65 15 47 104 169 182 251 60 64 97 135 97 188 0 9 7 27
16 39 8 12 22 44 30 72 12 41 20 51 42 56 70 15 100 30 142 67 44 40 79 88 63
86 -4 0 -19 -5 -33 -10z"/>
<path d="M3363 4640 c8 -11 34 -34 58 -51 24 -17 100 -88 167 -158 117 -119
123 -123 99 -76 -39 77 -92 143 -183 226 -52 47 -82 65 -122 73 -31 5 -32 5
-19 -14z"/>
<path d="M4321 4420 c-13 -11 -30 -20 -38 -20 -10 0 -13 -5 -8 -17 20 -50 27
-94 21 -145 -3 -36 -2 -58 4 -58 16 0 62 112 61 150 0 74 -4 110 -10 110 -3
-1 -17 -10 -30 -20z"/>
<path d="M6690 4172 c0 -5 7 -9 15 -9 8 0 12 4 9 9 -3 4 -9 8 -15 8 -5 0 -9
-4 -9 -8z"/>
<path d="M4581 3193 c-6 -10 -11 -12 -11 -5 0 14 -31 16 -45 4 -13 -11 -87
-32 -114 -32 -15 0 -20 -4 -15 -12 5 -10 4 -10 -6 -1 -16 15 -44 2 -77 -37
-12 -15 -34 -31 -48 -34 -37 -9 -106 -59 -177 -128 -66 -64 -124 -138 -97
-124 7 4 5 0 -5 -8 -11 -9 -16 -16 -12 -16 5 0 3 -6 -3 -13 -6 -8 -7 -18 -3
-22 4 -5 2 -5 -5 -1 -15 8 -42 -84 -38 -131 2 -20 -2 -73 -9 -119 -6 -45 -8
-80 -4 -78 4 3 8 13 8 22 0 27 39 92 84 143 64 71 143 130 237 176 48 24 109
62 135 87 63 55 162 106 211 106 36 1 161 27 136 29 -42 3 -58 79 -22 103 32
21 18 55 -27 64 -19 3 -36 10 -39 14 -3 5 -15 6 -27 2 -17 -4 -20 -2 -15 11 8
22 1 22 -12 0z"/>
<path d="M3770 3014 c0 -11 34 -94 38 -94 4 0 25 21 48 48 l41 47 -64 0 c-34
0 -63 0 -63 -1z"/>
<path d="M3450 2963 c0 -11 81 -144 112 -183 15 -19 36 -62 47 -96 11 -33 27
-73 35 -89 8 -16 13 -31 11 -34 -9 -8 -83 48 -110 83 -14 19 -33 37 -41 40
-17 7 -17 7 43 -81 47 -69 103 -177 124 -238 l13 -40 8 45 c11 57 3 164 -23
294 -24 118 -61 189 -129 246 -49 40 -90 65 -90 53z"/>
<path d="M4720 2923 c-23 -9 -219 -183 -207 -183 3 0 48 22 99 49 98 53 209
81 234 60 9 -8 11 -5 7 11 -11 40 -93 79 -133 63z"/>
<path d="M4847 2824 c-15 -8 -32 -12 -37 -9 -5 3 -11 1 -15 -5 -3 -5 -3 -10 2
-10 4 0 37 -3 72 -5 l64 -4 -23 24 c-27 29 -26 29 -63 9z"/>
<path d="M4742 2670 c-72 -10 -163 -28 -201 -39 -38 -12 -81 -21 -96 -21 -36
0 -119 -85 -172 -175 -59 -100 -82 -179 -88 -289 -4 -78 -1 -105 20 -170 22
-74 44 -118 32 -66 -3 14 -8 81 -12 150 -5 124 2 195 20 195 21 0 49 -115 56
-230 l1 -30 8 30 c4 17 8 62 9 100 2 95 15 145 62 241 43 88 133 186 204 223
77 41 198 21 298 -48 25 -17 48 -31 51 -31 11 0 148 -89 177 -114 35 -32 37
-19 5 33 -30 47 -102 111 -177 157 -61 37 -82 64 -49 64 10 0 22 -5 25 -10 4
-6 28 -21 54 -35 63 -31 170 -143 200 -208 21 -45 25 -67 25 -162 1 -101 -1
-115 -28 -170 -35 -73 -189 -230 -255 -259 -41 -19 -42 -20 -19 -29 22 -8 22
-9 4 -19 -10 -6 -64 -12 -120 -15 -87 -4 -115 -1 -205 21 -115 30 -178 58
-201 90 -8 11 -25 43 -38 71 l-23 50 7 -44 c22 -154 106 -276 232 -338 70 -35
83 -38 161 -38 65 0 97 5 129 20 l44 21 -45 50 -45 50 69 -3 c79 -2 114 10
192 64 106 74 173 154 214 256 27 67 32 175 13 275 -13 71 -68 195 -119 270
-22 33 -37 63 -31 67 9 6 98 -113 131 -177 66 -128 93 -272 70 -378 -8 -38 -9
-56 -1 -58 5 -2 8 -8 4 -13 -3 -5 -1 -9 4 -9 5 0 8 -21 6 -47 -2 -27 9 17 26
97 36 178 43 380 16 474 -20 69 -71 123 -141 150 -72 28 -322 31 -503 6z"/>
<path d="M4575 2560 c-21 -11 -52 -33 -68 -48 -30 -28 -144 -248 -134 -259 9
-9 72 34 109 75 38 42 113 99 202 154 45 28 56 39 43 44 -23 9 -124 -40 -131
-64 -4 -11 -21 -25 -38 -31 -35 -13 -46 -8 -30 12 7 8 9 17 5 20 -3 4 2 7 11
7 10 0 35 18 57 40 34 35 46 40 84 40 24 0 56 -5 72 -11 15 -5 46 -12 68 -15
l40 -4 -50 26 c-69 37 -182 44 -240 14z m-77 -173 c-13 -26 -21 -15 -12 18 5
19 9 23 15 14 4 -7 3 -21 -3 -32z"/>
<path d="M3790 2479 c0 -20 -7 -58 -15 -85 -16 -53 -20 -86 -7 -69 4 6 28 24
54 40 l47 29 -23 31 c-13 16 -30 44 -39 60 l-16 30 -1 -36z"/>
<path d="M4720 2489 c-44 -27 -150 -118 -148 -127 1 -4 -8 -38 -21 -77 -12
-38 -25 -104 -28 -145 -7 -89 7 -125 79 -203 l43 -47 62 10 c35 6 73 14 85 19
43 17 103 67 144 122 52 68 65 130 49 243 l-11 80 -60 53 c-58 53 -121 93
-146 93 -7 0 -29 -10 -48 -21z m28 -147 c1 -5 15 -7 30 -4 27 4 50 -17 117
-103 14 -19 15 -18 5 8 -17 47 -11 55 9 11 10 -23 24 -45 30 -48 25 -16 3
-132 -29 -151 -9 -6 -9 -3 -1 13 12 23 15 101 3 118 -8 13 -82 26 -82 15 0 -4
5 -12 11 -18 16 -16 3 -59 -18 -67 -15 -6 -16 -5 -5 5 18 19 16 63 -4 55 -8
-3 -12 -2 -9 4 3 5 -6 17 -20 26 -14 9 -24 19 -21 21 2 2 -7 15 -20 29 -23 22
-27 23 -57 11 -42 -18 -57 -37 -62 -81 -5 -35 11 -75 62 -156 8 -14 -3 -6 -25
18 -45 48 -72 114 -72 179 0 45 30 117 52 127 18 7 102 -2 106 -12z"/>
<path d="M4988 2432 c34 -48 44 -90 45 -184 0 -89 -45 -225 -91 -277 -20 -22
-29 -27 -22 -14 16 35 13 35 -34 -1 -68 -52 -128 -71 -223 -71 -44 0 -79 -3
-77 -7 3 -4 25 -19 49 -33 51 -30 137 -47 185 -35 32 7 33 8 8 9 -43 2 -33 14
25 34 114 40 229 139 293 252 38 70 39 79 13 196 -10 43 -17 52 -88 102 -104
76 -122 81 -83 29z"/>
<path d="M3829 2343 c-14 -8 -38 -35 -53 -59 -22 -34 -27 -52 -24 -91 l3 -48
24 48 c14 26 28 47 33 47 4 0 8 7 8 16 0 8 12 35 26 60 28 47 24 53 -17 27z"/>
<path d="M4489 2297 c-90 -84 -139 -185 -139 -286 0 -62 28 -102 101 -140 50
-27 208 -76 216 -67 2 2 -20 17 -47 35 -101 65 -114 99 -114 296 0 80 4 98 32
158 17 37 28 67 24 67 -4 0 -37 -28 -73 -63z m21 -334 c-1 -10 -39 39 -40 51
0 5 9 -3 20 -17 11 -14 20 -29 20 -34z"/>
<path d="M5446 1793 c-6 -14 -5 -15 5 -6 7 7 10 15 7 18 -3 3 -9 -2 -12 -12z"/>
<path d="M75 2011 c-3 -5 -1 -12 5 -16 5 -3 10 1 10 9 0 18 -6 21 -15 7z"/>
<path d="M121 1944 c0 -11 3 -14 6 -6 3 7 2 16 -1 19 -3 4 -6 -2 -5 -13z"/>
<path d="M1187 414 c-8 -8 1 -24 14 -24 5 0 9 7 9 15 0 15 -12 20 -23 9z"/>
<path d="M1665 70 c3 -5 8 -10 11 -10 2 0 4 5 4 10 0 6 -5 10 -11 10 -5 0 -7
-4 -4 -10z"/>
<path d="M2187 6748 c-2 -7 0 -23 4 -35 5 -13 6 -23 3 -23 -6 0 20 -26 61 -60
19 -16 24 -18 15 -6 -14 18 -14 18 7 6 11 -8 19 -20 16 -27 -3 -7 0 -13 7 -13
10 0 9 -4 0 -16 -11 -12 -11 -15 0 -12 7 2 15 -3 18 -11 3 -9 0 -11 -7 -6 -9
5 -9 1 0 -14 13 -19 15 -17 32 32 10 29 24 66 32 82 21 46 27 73 20 95 -6 18
-15 20 -105 20 -70 0 -100 -4 -103 -12z"/>
<path d="M2462 6740 c0 -14 2 -19 5 -12 2 6 2 18 0 25 -3 6 -5 1 -5 -13z"/>
<path d="M4135 6744 c-6 -8 -19 -16 -30 -18 -14 -2 -19 -9 -17 -25 2 -12 -3
-24 -12 -27 -8 -3 -13 -11 -10 -19 3 -7 -2 -15 -10 -18 -9 -4 -16 -15 -16 -26
0 -28 -11 -52 -21 -45 -8 5 -12 -8 -6 -22 1 -3 -6 -10 -15 -15 -17 -10 -25
-39 -11 -39 4 0 27 19 50 42 l44 43 -12 -35 c-7 -19 -17 -42 -23 -50 -6 -8 27
24 72 70 46 47 104 111 129 143 l44 57 -73 0 c-55 0 -76 -4 -83 -16z m-15 -46
c0 -6 -6 -5 -15 2 -8 7 -15 14 -15 16 0 2 7 1 15 -2 8 -4 15 -11 15 -16z"/>
<path d="M4940 6735 c19 -14 36 -25 39 -25 10 1 -53 50 -63 50 -6 0 5 -11 24
-25z"/>
<path d="M5601 6645 c22 -42 32 -72 30 -98 -1 -25 2 -36 9 -32 5 3 10 2 10 -4
0 -6 10 -15 21 -22 20 -10 21 -9 14 17 -4 16 -8 34 -9 39 -5 22 -37 75 -46 75
-6 0 -10 6 -10 14 0 8 -11 28 -25 43 -24 26 -23 23 6 -32z"/>
<path d="M3888 6668 c-10 -10 -14 -18 -9 -18 10 0 36 29 30 34 -2 1 -12 -6
-21 -16z"/>
<path d="M5680 6416 c0 -9 5 -16 10 -16 6 0 10 4 10 9 0 6 -4 13 -10 16 -5 3
-10 -1 -10 -9z"/>
<path d="M2155 6393 c-4 -17 -13 -34 -20 -37 -8 -3 -19 -14 -25 -26 -11 -20
-10 -21 9 -10 30 16 53 55 48 82 -4 20 -5 20 -12 -9z"/>
<path d="M3932 6365 c0 -16 2 -22 5 -12 2 9 2 23 0 30 -3 6 -5 -1 -5 -18z"/>
<path d="M5680 6359 c0 -5 5 -7 10 -4 6 3 10 8 10 11 0 2 -4 4 -10 4 -5 0 -10
-5 -10 -11z"/>
<path d="M5680 6319 c7 -11 14 -18 17 -15 8 8 -5 36 -17 36 -7 0 -7 -6 0 -21z"/>
<path d="M1646 4980 c-10 -22 -27 -48 -37 -59 -10 -10 -15 -22 -12 -25 4 -3 1
-6 -6 -6 -7 0 -9 -4 -6 -10 3 -5 1 -10 -4 -10 -6 0 -11 -6 -11 -12 0 -25 -204
-242 -259 -275 -40 -25 -34 -29 19 -12 19 6 54 13 78 16 33 4 42 2 42 -10 0
-12 8 -15 38 -10 48 7 64 22 117 108 57 91 63 109 75 217 15 128 1 162 -34 88z"/>
<path d="M1025 4940 c-37 -17 -38 -19 -13 -19 22 -1 58 20 58 35 0 5 2 6 -45
-16z"/>
<path d="M2232 4671 c-34 -43 -42 -62 -17 -41 22 18 58 70 53 76 -3 2 -19 -14
-36 -35z"/>
<path d="M1900 4643 c0 -24 -69 -82 -111 -93 -24 -6 -64 -19 -89 -29 -25 -10
-66 -22 -92 -25 -26 -4 -50 -11 -53 -17 -4 -5 -18 -9 -33 -9 -15 0 -38 -8 -51
-17 -14 -9 -21 -12 -18 -5 4 6 -11 3 -34 -6 -23 -9 -43 -21 -46 -27 -2 -7 -14
-10 -26 -8 -27 5 -77 -37 -77 -65 0 -32 -29 -91 -49 -102 -11 -5 -33 -24 -51
-41 -24 -24 -28 -34 -18 -40 10 -7 10 -9 -2 -9 -8 -1 10 -10 40 -22 60 -23
131 -89 173 -160 53 -91 97 -261 97 -378 0 -82 -104 -400 -150 -460 -29 -38
-25 -8 15 106 38 109 46 167 13 94 -38 -83 -187 -278 -257 -336 -150 -124
-180 -149 -180 -156 -1 -9 79 26 249 110 133 65 137 67 257 189 88 89 125 134
136 165 22 60 68 282 69 327 1 65 -93 221 -191 317 -33 33 -61 64 -61 67 0 15
41 5 94 -23 l57 -29 -7 37 c-20 109 -96 167 -239 181 l-70 6 58 29 c51 26 65
28 118 22 75 -7 112 -28 150 -86 28 -42 30 -51 27 -119 -2 -61 0 -76 14 -85
14 -8 29 1 86 57 80 77 101 87 182 87 54 0 90 -10 162 -45 26 -13 26 -13 17
19 -5 17 -9 47 -8 66 1 21 -11 63 -29 103 -42 90 -59 152 -73 255 -10 78 -10
87 6 98 14 11 15 16 6 28 -9 11 -9 15 1 18 9 3 9 6 0 12 -7 4 -12 3 -12 -1z"/>
<path d="M2175 4590 c-10 -11 -16 -22 -13 -25 3 -3 13 6 22 20 20 30 16 32 -9
5z"/>
<path d="M819 4504 c-44 -46 -90 -69 -163 -83 -33 -6 -61 -12 -63 -14 -1 -2
34 -9 80 -16 132 -20 130 -19 112 -47 -8 -13 -15 -25 -15 -28 0 -10 62 -24 86
-20 15 3 37 -2 50 -11 27 -17 33 -5 8 16 -8 7 -24 29 -34 50 -11 20 -31 47
-46 58 -15 12 -23 21 -18 21 11 -1 30 -15 83 -63 31 -28 44 -48 47 -74 5 -40
11 -53 24 -53 5 0 2 16 -6 35 -16 40 -15 41 29 19 17 -10 45 -17 62 -16 16 0
37 -5 45 -13 9 -8 29 -12 45 -10 17 2 33 4 37 4 3 1 16 29 27 64 21 61 73 145
108 173 16 13 13 14 -27 8 -162 -24 -292 -19 -359 16 -55 28 -72 25 -112 -16z
m118 -146 c-3 -8 -6 -5 -6 6 -1 11 2 17 5 13 3 -3 4 -12 1 -19z"/>
<path d="M71 4443 c-7 -3 -26 -20 -42 -37 l-28 -31 0 -415 c0 -378 1 -412 15
-380 17 39 74 95 104 103 11 3 18 1 14 -4 -3 -5 0 -9 5 -9 6 0 11 -5 11 -12 0
-17 -30 -47 -43 -44 -7 2 -9 1 -4 -1 13 -8 7 -25 -7 -20 -9 4 -16 -3 -20 -16
-7 -27 -62 -61 -70 -44 -2 7 -5 -59 -5 -146 -1 -148 1 -161 23 -205 27 -54 81
-106 147 -145 87 -51 335 -73 529 -48 106 14 130 19 128 29 0 4 54 62 121 130
163 164 161 162 145 265 -13 80 -46 200 -62 224 -4 6 -7 -39 -7 -100 0 -112 0
-112 -43 -199 -23 -49 -47 -88 -52 -88 -6 0 -10 -7 -10 -15 0 -19 -78 -95 -97
-95 -8 0 -21 -7 -30 -15 -24 -24 -246 -14 -282 13 -41 30 -122 69 -161 77 -55
12 -86 31 -109 70 -38 64 -25 70 37 17 67 -58 110 -82 149 -82 16 -1 43 -13
63 -30 32 -28 70 -40 70 -22 0 4 12 15 28 24 l27 17 -25 1 c-14 0 -38 7 -55
16 -16 8 -48 18 -71 21 -57 7 -133 84 -138 137 -1 20 0 36 4 36 3 0 11 15 18
33 6 17 23 46 38 62 26 31 26 30 -2 -45 -7 -19 -13 -54 -14 -77 0 -34 5 -46
25 -59 13 -9 27 -24 30 -35 4 -10 15 -19 25 -19 10 0 22 -4 25 -10 3 -5 11
-10 16 -10 6 0 8 4 5 9 -3 5 23 12 58 16 113 12 166 30 210 74 22 22 37 43 33
47 -3 4 -13 1 -21 -5 -8 -7 -27 -14 -41 -16 -14 -1 -36 -11 -48 -22 -31 -28
-94 -30 -118 -4 -18 20 -18 20 37 40 30 12 63 21 74 21 27 0 88 30 94 47 9 22
-5 43 -33 49 -38 8 -121 46 -121 56 0 4 21 8 48 8 57 0 147 -39 156 -68 13
-40 56 -27 56 17 0 20 -50 56 -110 80 -69 27 -73 39 -9 20 24 -7 54 -12 65
-12 14 1 24 -5 27 -16 2 -10 14 -20 26 -24 18 -4 21 -1 22 31 0 21 4 46 9 57
7 17 8 16 9 -10 1 -16 2 -48 2 -70 1 -22 -1 -61 -4 -88 -6 -45 -5 -47 13 -37
39 21 76 222 50 271 -19 34 -120 139 -150 154 -28 14 -115 30 -143 26 -10 -1
-25 3 -33 9 -8 7 -14 8 -14 3 0 -13 -181 -14 -197 -1 -7 6 -13 7 -13 3 0 -5
-9 0 -21 10 -19 18 -22 18 -47 3 -15 -9 -36 -31 -46 -50 -12 -21 -34 -41 -60
-52 -24 -10 -53 -34 -71 -59 -55 -75 -87 -54 -44 28 33 62 76 101 153 139 98
48 187 59 327 41 204 -27 353 -130 434 -299 49 -103 62 -149 73 -256 l7 -75
37 66 c45 80 57 131 61 252 3 148 -7 160 -203 234 -169 64 -211 76 -299 89
-52 8 -97 17 -100 19 -16 16 29 25 134 26 121 0 217 -11 254 -30 11 -6 27 -8
35 -5 9 4 22 2 29 -3 6 -5 34 -18 60 -27 55 -21 147 -107 177 -165 21 -43 50
-166 50 -214 0 -21 -21 -76 -55 -145 -30 -61 -55 -114 -55 -118 0 -20 122 147
130 177 28 104 4 276 -50 354 -36 53 -114 122 -157 140 -18 8 -72 24 -120 36
-61 15 -108 35 -153 64 -75 48 -101 60 -97 42 2 -12 -34 -13 -63 0 -8 3 -22 5
-31 4 -9 -1 -27 2 -40 8 -16 5 -31 5 -42 0 -12 -7 -17 -6 -17 3 0 10 -2 10 -9
-1 -5 -8 -16 -11 -29 -7 -12 4 -35 0 -54 -10 -18 -10 -50 -19 -71 -21 -21 -2
-53 -13 -70 -24 -43 -25 -64 -24 -69 4 -8 40 17 79 102 166 l26 26 -28 23
c-52 43 -139 91 -155 85 -10 -4 -14 -2 -10 3 12 20 -146 53 -182 37z m208
-704 c-22 -14 -33 -10 -19 6 7 8 17 12 22 9 6 -4 5 -10 -3 -15z m-59 -13 c0
-16 -18 -31 -27 -22 -8 8 5 36 17 36 5 0 10 -6 10 -14z m-48 -48 c-7 -7 -12
-8 -12 -2 0 14 12 26 19 19 2 -3 -1 -11 -7 -17z m425 -175 c3 -7 -3 -9 -16 -6
-12 3 -21 10 -21 15 0 13 32 6 37 -9z m-4 -79 c-8 -21 -31 -17 -44 7 -7 13 -7
19 -1 15 6 -3 14 -2 17 4 10 16 35 -8 28 -26z"/>
<path d="M448 4433 c7 -3 16 -2 19 1 4 3 -2 6 -13 5 -11 0 -14 -3 -6 -6z"/>
<path d="M890 4237 c0 -9 31 -107 34 -107 2 0 18 5 35 11 l33 12 -43 43 c-37
38 -59 53 -59 41z"/>
<path d="M1713 3901 c-34 -12 -52 -13 -93 -5 -27 6 -50 9 -50 7 0 -2 11 -20
24 -41 22 -33 36 -72 67 -178 5 -17 10 -60 10 -96 1 -36 5 -71 9 -77 5 -9 34
-11 114 -5 58 4 106 10 106 15 0 4 34 25 76 46 42 20 87 50 100 66 60 71 4
193 -117 253 -66 34 -178 40 -246 15z"/>
<path d="M1273 3771 c49 -98 45 -149 -21 -287 -85 -173 -145 -254 -272 -364
-23 -20 -22 -20 10 1 60 41 152 140 227 245 104 148 117 176 117 259 0 77 -15
119 -64 176 l-30 34 33 -64z"/>
<path d="M2143 3620 c-17 -36 -51 -93 -76 -127 l-46 -61 102 34 c55 19 113 35
129 36 35 3 36 20 2 38 -35 19 -66 66 -74 109 l-6 36 -31 -65z"/>
<path d="M804 3383 c-21 -26 -33 -44 -27 -40 14 9 77 87 70 87 -3 0 -22 -21
-43 -47z"/>
<path d="M663 3375 c0 -8 4 -15 9 -15 4 0 8 4 8 9 0 6 -4 12 -8 15 -5 3 -9 -1
-9 -9z"/>
<path d="M1664 3367 c3 -12 6 -65 6 -119 0 -91 1 -96 20 -91 11 3 29 20 40 39
12 18 52 61 89 96 l68 63 -66 2 c-36 1 -88 8 -114 16 -49 16 -49 16 -43 -6z"/>
<path d="M1599 3214 c-39 -63 -95 -173 -110 -214 -8 -22 -5 -20 22 10 104 117
135 175 127 238 -3 23 -6 20 -39 -34z"/>
<path d="M0 3105 l0 -50 80 -54 c45 -30 111 -65 148 -78 160 -58 426 -63 529
-9 59 31 47 33 -26 6 -76 -29 -78 -18 -6 34 14 10 -9 7 -74 -10 -78 -20 -110
-23 -185 -19 -182 9 -282 53 -413 179 l-53 50 0 -49z"/>
<path d="M2112 3100 c-63 -29 -106 -65 -147 -125 l-37 -54 -1 -137 c0 -96 3
-139 11 -142 7 -2 12 -13 12 -23 0 -35 18 -11 30 40 6 28 18 55 26 62 8 6 14
20 14 31 0 24 73 237 94 276 22 39 47 92 44 91 -2 0 -22 -9 -46 -19z"/>
<path d="M6750 2939 c0 -71 -20 -114 -62 -128 -32 -11 -80 0 -104 23 -24 24
-29 20 -46 -35 -17 -50 -12 -93 15 -126 5 -7 7 -22 4 -34 -5 -17 -3 -18 9 -8
12 10 18 8 34 -8 10 -12 17 -23 14 -26 -3 -3 1 -5 8 -4 42 1 58 -4 58 -21 0
-23 19 -42 41 -42 10 0 22 -12 27 -27 8 -20 11 46 11 235 1 144 -1 262 -4 262
-3 0 -5 -27 -5 -61z"/>
<path d="M3 2910 c2 -19 8 -34 13 -33 5 0 16 -6 24 -15 13 -14 12 -15 -3 -9
-10 4 -17 2 -17 -6 0 -8 -4 -6 -10 3 -7 10 -10 -11 -10 -69 0 -73 3 -86 21
-102 12 -10 26 -16 32 -12 6 3 7 1 3 -6 -4 -6 -11 -9 -16 -6 -4 3 -10 -1 -13
-8 -3 -9 8 -13 40 -15 36 -1 45 2 52 19 7 20 8 20 24 5 13 -14 23 -15 52 -7
19 5 37 6 40 1 3 -4 14 -6 25 -3 17 5 18 8 8 21 -11 12 -10 17 5 26 52 31 52
31 3 60 -26 15 -61 40 -79 55 -30 27 -105 56 -116 46 -2 -3 0 -5 5 -5 5 0 10
-9 10 -20 0 -22 -16 -26 -33 -9 -9 9 -9 16 0 30 10 16 6 24 -26 56 l-38 38 4
-35z"/>
<path d="M815 2780 c-3 -5 -1 -10 4 -10 6 0 11 5 11 10 0 6 -2 10 -4 10 -3 0
-8 -4 -11 -10z"/>
<path d="M0 2660 c0 -5 5 -10 10 -10 6 0 10 5 10 10 0 6 -4 10 -10 10 -5 0
-10 -4 -10 -10z"/>
<path d="M2157 2485 c-18 -81 -23 -314 -7 -350 6 -14 9 -1 9 45 1 36 8 103 16
150 29 163 13 297 -18 155z"/>
<path d="M608 2543 c6 -2 18 -2 25 0 6 3 1 5 -13 5 -14 0 -19 -2 -12 -5z"/>
<path d="M1760 2231 c0 -6 5 -11 10 -11 7 0 7 -6 0 -19 -7 -14 -7 -22 0 -26 6
-4 7 -11 4 -17 -5 -7 -2 -8 6 -3 10 6 12 3 7 -15 -4 -17 -1 -23 14 -27 18 -5
19 -6 2 -19 -14 -11 -14 -14 -3 -12 11 2 15 -5 14 -25 -1 -26 1 -27 27 -22 23
5 28 3 23 -8 -3 -9 3 -16 15 -20 31 -8 37 -35 16 -70 -13 -22 -15 -32 -7 -35
7 -2 12 -12 12 -21 0 -10 8 -25 18 -34 14 -13 19 -13 29 -2 9 10 10 16 2 21
-8 4 -7 9 2 15 9 5 10 9 2 9 -6 0 -9 9 -6 20 6 24 11 25 33 5 15 -13 18 -14
23 -2 7 19 -29 97 -53 114 -10 7 -34 39 -54 71 -43 71 -136 161 -136 133z"/>
<path d="M1800 1997 c0 -20 4 -25 15 -21 13 5 13 9 3 23 -7 9 -14 18 -15 20
-2 2 -3 -8 -3 -22z"/>
<path d="M1863 1978 c3 -10 2 -20 -3 -23 -6 -4 -10 2 -10 11 0 10 -3 15 -6 11
-9 -8 4 -57 15 -57 15 0 23 52 10 64 -9 8 -10 7 -6 -6z"/>
<path d="M1751 1908 c12 -18 24 -35 26 -37 2 -2 3 5 3 17 0 21 -24 52 -41 52
-6 0 0 -15 12 -32z"/>
<path d="M4447 729 c7 -7 15 -10 18 -7 3 3 -2 9 -12 12 -14 6 -15 5 -6 -5z"/>
<path d="M1900 216 c0 -2 7 -7 16 -10 8 -3 12 -2 9 4 -6 10 -25 14 -25 6z"/>
</g>
</svg>
